<?xml version="1.0" encoding="UTF-8" standalone="no"?>
<svg
   xmlns:dc="http://purl.org/dc/elements/1.1/"
   xmlns:cc="http://creativecommons.org/ns#"
   xmlns:rdf="http://www.w3.org/1999/02/22-rdf-syntax-ns#"
   xmlns:svg="http://www.w3.org/2000/svg"
   xmlns="http://www.w3.org/2000/svg"
   viewBox="0 0 816 617.12268"
   height="617.12268"
   width="816"
   xml:space="preserve"
   id="svg2"
   version="1.1"><metadata
     id="metadata8"><rdf:RDF><cc:Work
         rdf:about=""><dc:format>image/svg+xml</dc:format><dc:type
           rdf:resource="http://purl.org/dc/dcmitype/StillImage" /></cc:Work></rdf:RDF></metadata><defs
     id="defs6"><clipPath
       id="clipPath18"
       clipPathUnits="userSpaceOnUse"><path
         id="path16"
         d="M 0,462.842 H 612 V 0 H 0 Z" /></clipPath><clipPath
       id="clipPath38"
       clipPathUnits="userSpaceOnUse"><path
         id="path36"
         d="M 64.1893,405.977 H 557.688 V 168.456 H 64.1893 Z" /></clipPath></defs><g
     transform="matrix(1.3333333,0,0,-1.3333333,0,617.12267)"
     id="g10"><g
       id="g12"><g
         clip-path="url(#clipPath18)"
         id="g14"><g
           transform="translate(306.8291,170.4248)"
           id="g20"><path
             id="path22"
             style="fill:#292929;fill-opacity:1;fill-rule:nonzero;stroke:none"
             d="m 0,0 c 0,0.176 0,0.352 -0.001,0.527 39.427,0 78.858,0.342 118.28,-0.103 33.836,-0.382 67.658,-1.864 101.494,-2.403 8.198,-0.13 16.438,1.433 24.632,2.426 4.663,0.566 6.642,3.445 6.227,8.172 -0.532,6.062 -1.249,12.144 -1.207,18.212 0.326,47.235 0.497,94.476 1.426,141.7 0.33,16.827 -3.71,31.032 -14.449,44.48 -19.892,24.91 -10.063,22.483 -44.701,22.474 -126.621,-0.032 -253.242,-1.09 -379.863,-1.07 -17.183,0.002 -28.734,-6.187 -40.27,-18.547 -11.454,-12.272 -14.493,-25.076 -14.216,-40.843 0.825,-46.983 0.771,-93.982 1.001,-140.974 0.037,-7.543 -0.667,-15.113 -0.24,-22.625 0.55,-9.697 4.539,-12.802 14,-12.687 38.712,0.474 77.424,1.004 116.137,1.217 C -74.5,0.161 -37.25,0 0,0 m 263.557,251.624 c 0.331,-5.426 1.705,-10.896 1.47,-16.297 -0.665,-15.309 -2.566,-30.596 -2.595,-45.893 -0.078,-39.162 0.446,-78.326 1.013,-117.485 0.677,-46.717 1.618,-93.429 2.551,-140.141 0.066,-3.244 -2.517,-5.919 -5.761,-5.971 -23.915,-0.381 -47.83,-0.81 -71.746,-1.185 -5.028,-0.079 -8.108,2.473 -9.713,7.224 -4.434,13.13 -9.013,26.212 -13.502,39.324 -7.227,21.113 -2.058,18.144 -24.371,18.668 -49.62,1.166 -99.245,3.187 -148.862,3.045 -47.396,-0.135 -94.79,-2.455 -142.167,-4.257 -2.906,-0.11 -6.947,-3.504 -8.27,-6.379 -5.979,-12.979 -11.172,-26.32 -16.646,-39.532 -0.327,-0.506 -0.843,-1.304 -1.169,-1.81 -3.995,-4.112 -7.813,-10.774 -12.072,-11.068 -22.049,-1.521 -44.227,-1.104 -66.354,-1.623 -6.39,-0.15 -7.743,3.112 -7.816,8.603 -0.397,29.944 -1.062,59.885 -1.471,89.831 -0.403,29.459 -0.48,58.924 -0.931,88.383 -0.658,42.849 -1.426,85.697 -2.406,128.54 -0.143,6.256 2.393,9.002 8.195,9.499 5.575,0.479 11.153,1.265 16.733,1.296 41.39,0.233 82.781,0.269 124.171,0.447 97.652,0.419 195.304,0.883 292.956,1.328 0,0 -0.404,0.078 -0.352,0.068 2.898,-0.543 5.829,-0.893 8.773,-1.03 26.778,-1.241 53.561,-2.398 80.342,-3.585" /></g><g
           transform="translate(567.0635,422.1953)"
           id="g24"><path
             id="path26"
             style="fill:#373535;fill-opacity:1;fill-rule:nonzero;stroke:#292929;stroke-width:5;stroke-linecap:butt;stroke-linejoin:miter;stroke-miterlimit:10;stroke-dasharray:none;stroke-opacity:1"
             d="m 0,0 c 2.509,1.954 4.853,-48.833 4.843,-65.594 -0.028,-47.475 0.634,-94.953 1.266,-142.427 0.505,-37.988 1.295,-75.972 2.157,-113.955 0.111,-4.931 -1.89,-6.463 -6.376,-6.532 -25.047,-0.385 -50.098,-0.681 -75.137,-1.37 -25.472,-0.699 -50.931,-2.547 -76.399,-2.621 -86.698,-0.252 -173.396,0.065 -260.095,0.136 -9.252,0.008 -18.505,-0.317 -27.754,-0.199 -3.494,0.045 -7.43,-0.242 -8.266,5.122 -0.188,1.203 -3.638,2.736 -5.56,2.7 -19.469,-0.37 -38.949,-0.724 -58.392,-1.73 -12.258,-0.634 -15.477,1.642 -15.657,14.727 -0.63,46.026 -0.856,92.058 -1.622,138.083 -0.921,55.267 -2.229,110.529 -3.393,165.792 -0.193,9.136 2.003,12.159 11.178,12.393 16.287,0.417 32.59,0.146 48.886,0.214 65.756,0.274 131.511,0.675 197.267,0.821 C -213.636,5.692 -66.269,3.125 -6.85,3.041 -3.729,3.036 -0.611,2.333 2.509,1.954 -95.144,1.509 -280.745,3.492 -378.396,3.072 -419.787,2.895 -461.178,2.858 -502.567,2.625 -508.147,2.594 -513.725,1.808 -519.3,1.33 c -5.802,-0.498 -8.338,-3.244 -8.195,-9.499 0.979,-42.843 1.748,-85.692 2.405,-128.541 0.452,-29.459 0.529,-58.924 0.931,-88.383 0.409,-29.945 1.075,-59.886 1.472,-89.831 0.073,-5.49 1.426,-8.753 7.815,-8.602 22.127,0.518 44.306,0.101 66.355,1.623 4.442,0.306 8.406,7.545 12.587,11.58 -1.105,-2.96 -2.189,-5.92 -3.309,-8.865 -3.161,-8.311 -2.154,-9.655 6.879,-9.726 18.256,-0.144 36.511,-0.517 54.767,-0.565 90.795,-0.243 181.59,-0.445 272.386,-0.543 7.695,-0.008 15.393,0.85 22.992,1.299 -5.994,18.367 -11.796,36.101 -17.567,53.845 -3.443,10.585 -3.421,10.56 -14.85,10.736 -4.135,0.064 -8.264,0.417 -12.4,0.486 -54.747,0.905 -109.496,2.552 -164.241,2.408 -38.907,-0.103 -77.804,-2.731 -116.714,-3.946 -4.765,-0.149 -6.712,-2.138 -8.573,-6.058 -6.035,-12.712 -12.464,-25.236 -18.742,-37.833 5.484,13.231 10.684,26.593 16.671,39.592 1.324,2.875 5.365,6.268 8.27,6.379 47.378,1.802 94.772,4.122 142.167,4.257 49.618,0.141 99.243,-1.879 148.863,-3.045 22.312,-0.525 17.143,2.445 24.371,-18.668 4.488,-13.113 9.067,-26.195 13.502,-39.325 1.604,-4.751 4.685,-7.302 9.713,-7.223 24.053,0.377 48.105,0.808 72.158,1.191 4.011,0.064 5.429,1.951 5.349,5.964 -0.933,46.712 -1.874,93.425 -2.551,140.142 C 2.644,-140.662 2.12,-101.498 2.197,-62.337 2.227,-47.039 -0.665,-15.309 0,0" /></g><g
           transform="translate(439.2002,119.1289)"
           id="g28"><path
             id="path30"
             style="fill:#be5aa1;fill-opacity:1;fill-rule:nonzero;stroke:none"
             d="m 0,0 c -5.659,0.199 -10.439,-4.013 -10.671,-9.605 -0.245,-5.953 2.934,-8.918 8.697,-9.277 6.077,-0.378 10.877,3.478 11.166,8.856 C 9.484,-4.585 5.458,-0.192 0,0 m -117.421,18.031 c 0.192,9.153 -5.248,14.942 -14.14,15.048 -8.1,0.096 -13.532,-5.269 -13.86,-13.692 -0.311,-7.973 5.943,-14.295 14.194,-14.348 7.886,-0.051 13.646,5.369 13.806,12.992 M -275.37,1.051 c -6.633,0.123 -13.496,-5.821 -13.457,-10.933 0.035,-4.615 5.545,-9.121 11.348,-9.28 5.33,-0.147 9.104,3.837 9.075,10.002 -0.025,5.224 -1.432,9.681 -6.966,10.211 m 221.324,-14.135 c 2.603,0.267 5.692,-0.216 7.814,0.997 2.818,1.611 7.161,5.071 6.763,6.792 -0.691,2.987 -4.142,6.72 -7.111,7.472 -4.508,1.14 -9.828,0.812 -14.339,-0.495 -2.47,-0.715 -5.512,-4.734 -5.492,-7.24 0.019,-2.388 3.36,-5.212 5.862,-6.947 1.535,-1.064 4.24,-0.44 6.503,-0.579 M -228.942,3.615 c -0.359,0 -2.052,0.011 -3.745,-0.002 -5.497,-0.043 -8.862,-2.564 -8.691,-8.299 0.166,-5.548 4.494,-6.52 8.754,-6.483 4.812,0.041 9.756,0.293 14.352,1.532 1.679,0.453 3.837,4.227 3.517,6.099 -1.222,7.129 -6.888,7.78 -14.187,7.153 m -78.496,-9.634 c 6.277,12.597 12.707,25.122 18.741,37.833 1.861,3.92 3.808,5.91 8.573,6.058 38.91,1.215 77.807,3.844 116.714,3.946 54.745,0.145 109.494,-1.503 164.241,-2.408 4.136,-0.068 8.266,-0.422 12.4,-0.485 11.429,-0.177 11.408,-0.152 14.85,-10.737 5.772,-17.744 11.573,-35.478 17.567,-53.844 -7.599,-0.449 -15.296,-1.308 -22.992,-1.3 -90.796,0.099 -181.591,0.301 -272.386,0.543 -18.256,0.049 -36.511,0.422 -54.767,0.565 -9.033,0.072 -10.04,1.415 -6.878,9.726 1.12,2.945 2.204,5.905 3.308,8.865 0.213,0.417 0.421,0.828 0.629,1.238" /></g><g
           id="g32"><g
             id="g34" /><g
             id="g50"><g
               id="g48"
               clip-path="url(#clipPath38)"><g
                 id="g42"
                 transform="translate(541.3447,172.4902)"><path
                   id="path40"
                   style="fill:#373535;fill-opacity:1;fill-rule:nonzero;stroke:none"
                   d="m 0,0 c 11.084,-0.122 12.972,2.313 12.911,13.58 -0.183,30.875 -0.549,61.812 -0.609,92.687 0,25.333 0.73,50.667 0.243,75.94 -0.061,5.906 -2.74,12.362 -5.968,17.416 -6.212,9.561 -13.519,18.452 -20.827,27.282 -1.645,2.01 -5.115,3.471 -7.855,3.594 -21.193,0.791 -42.325,1.826 -63.517,1.644 -71.556,-0.609 -143.171,-1.888 -214.727,-2.497 -44.089,-0.426 -88.119,-0.305 -132.209,0.061 -8.282,0.061 -14.494,-2.375 -19.731,-8.648 -4.811,-5.785 -9.926,-11.388 -15.285,-16.747 -4.811,-4.811 -6.577,-10.291 -6.516,-17.051 0.182,-23.872 -0.061,-47.744 0,-71.555 0.061,-34.59 0.122,-69.181 0.426,-103.77 0.122,-10.901 4.324,-14.128 15.164,-13.52 18.208,0.914 36.417,2.132 54.686,2.192 59.863,0.305 119.786,0.122 179.649,0.122 v 0.914 c 34.347,0 68.632,0.182 102.978,-0.061 C -80.812,1.218 -40.375,0.365 0,0 M 1.888,210.95 C 12.606,197.492 16.687,183.303 16.321,166.495 15.407,119.238 15.225,71.981 14.92,24.785 14.859,18.695 15.59,12.605 16.139,6.576 16.504,1.826 14.555,-1.035 9.866,-1.645 1.705,-2.619 -6.516,-4.202 -14.737,-4.02 c -33.86,0.488 -67.658,2.01 -101.517,2.375 -39.401,0.426 -78.863,0.123 -118.264,0.123 v -0.549 c -37.269,0 -74.478,0.183 -111.748,-0.061 -38.731,-0.182 -77.401,-0.73 -116.132,-1.218 -9.439,-0.122 -13.458,2.985 -14.006,12.728 -0.427,7.49 0.304,15.042 0.243,22.593 -0.243,47.013 -0.182,94.027 -0.974,140.979 -0.304,15.773 2.74,28.561 14.189,40.862 11.51,12.363 23.08,18.513 40.254,18.513 126.607,0 253.274,1.036 379.881,1.096 34.651,0 24.786,2.436 44.699,-22.471" /></g><g
                 id="g46"
                 transform="translate(554.2559,186.0703)"><path
                   id="path44"
                   style="fill:#be5aa1;fill-opacity:1;fill-rule:nonzero;stroke:none"
                   d="m 0,0 c 0.061,-11.267 -1.827,-13.702 -12.911,-13.58 -40.375,0.365 -80.812,1.218 -121.187,1.583 -34.346,0.243 -68.631,0.06 -102.978,0.06 v -0.913 c -59.863,0 -119.786,0.183 -179.649,-0.122 -18.27,-0.06 -36.478,-1.278 -54.687,-2.192 -10.839,-0.608 -15.041,2.619 -15.163,13.519 -0.304,34.59 -0.365,69.181 -0.426,103.771 -0.061,23.811 0.182,47.683 0,71.555 -0.061,6.759 1.705,12.24 6.516,17.051 5.359,5.359 10.474,10.962 15.285,16.747 5.237,6.272 11.449,8.708 19.731,8.647 44.09,-0.365 88.119,-0.486 132.209,-0.06 71.556,0.609 143.171,1.888 214.727,2.496 21.192,0.183 42.324,-0.852 63.516,-1.644 2.741,-0.122 6.211,-1.583 7.856,-3.593 7.307,-8.83 14.615,-17.721 20.827,-27.282 3.228,-5.054 5.907,-11.51 5.968,-17.417 C 0.121,143.354 -0.609,118.02 -0.609,92.687 -0.549,61.812 -0.184,30.875 0,0" /></g></g></g></g><g
           transform="translate(306.8271,170.4189)"
           id="g52"><path
             id="path54"
             style="fill:none;stroke:#292929;stroke-width:2;stroke-linecap:butt;stroke-linejoin:miter;stroke-miterlimit:10;stroke-dasharray:none;stroke-opacity:1"
             d="m 0,0 c -37.27,0 -74.479,0.184 -111.748,-0.061 -38.731,-0.182 -77.401,-0.73 -116.132,-1.217 -9.439,-0.122 -13.459,2.984 -14.007,12.727 -0.426,7.49 0.304,15.042 0.244,22.593 -0.244,47.014 -0.183,94.027 -0.975,140.979 -0.304,15.773 2.741,28.561 14.19,40.863 11.51,12.362 23.08,18.512 40.253,18.512 126.607,0 253.275,1.036 379.882,1.097 34.65,0 24.785,2.436 44.698,-22.472 10.719,-13.458 14.799,-27.647 14.434,-44.455 -0.914,-47.256 -1.097,-94.513 -1.402,-141.71 -0.06,-6.089 0.67,-12.179 1.219,-18.209 0.365,-4.75 -1.584,-7.611 -6.272,-8.22 -8.161,-0.975 -16.382,-2.558 -24.604,-2.375 -33.859,0.487 -67.657,2.01 -101.516,2.375 C 78.862,0.853 39.4,0.549 0,0.549 Z" /></g><g
           transform="translate(317.1797,173.2207)"
           id="g56"><path
             id="path58"
             style="fill:none;stroke:#292929;stroke-width:2;stroke-linecap:butt;stroke-linejoin:miter;stroke-miterlimit:10;stroke-dasharray:none;stroke-opacity:1"
             d="m 0,0 v 0.913 c 34.347,0 68.632,0.183 102.979,-0.06 40.375,-0.366 80.811,-1.218 121.186,-1.583 11.084,-0.123 12.972,2.313 12.911,13.58 -0.183,30.875 -0.549,61.811 -0.609,92.686 0,25.334 0.73,50.667 0.243,75.94 -0.061,5.907 -2.74,12.362 -5.968,17.417 -6.212,9.561 -13.519,18.452 -20.827,27.282 -1.644,2.01 -5.115,3.471 -7.855,3.593 -21.193,0.792 -42.325,1.827 -63.517,1.644 -71.556,-0.609 -143.171,-1.888 -214.727,-2.496 -44.089,-0.427 -88.119,-0.305 -132.209,0.06 -8.282,0.061 -14.494,-2.375 -19.731,-8.647 -4.811,-5.786 -9.926,-11.388 -15.285,-16.747 -4.811,-4.811 -6.577,-10.292 -6.516,-17.052 0.182,-23.872 -0.061,-47.743 0,-71.554 0.061,-34.59 0.122,-69.181 0.426,-103.771 0.122,-10.9 4.324,-14.128 15.164,-13.519 18.208,0.914 36.417,2.131 54.686,2.192 C -119.786,0.183 -59.863,0 0,0 Z" /></g><g
           transform="translate(220.7705,113.0224)"
           id="g60"><path
             id="path62"
             style="fill:#373535;fill-opacity:1;fill-rule:nonzero;stroke:none"
             d="M 0,0 C -5.641,5.463 -10.962,5.008 -16.343,-0.868 -10.109,-0.537 -5.055,-0.269 0,0 M -10.512,9.722 C -3.213,10.349 2.453,9.697 3.674,2.568 3.995,0.696 1.837,-3.077 0.157,-3.53 c -4.595,-1.24 -9.54,-1.491 -14.351,-1.532 -4.261,-0.038 -8.588,0.934 -8.754,6.483 -0.172,5.734 3.194,8.256 8.691,8.299 1.693,0.012 3.385,0.002 3.745,0.002" /></g><g
           transform="translate(390.6309,116.583)"
           id="g64"><path
             id="path66"
             style="fill:#373535;fill-opacity:1;fill-rule:nonzero;stroke:none"
             d="m 0,0 c -3.169,-0.149 -4.547,0.153 -5.533,-0.335 -2.272,-1.125 -4.354,-2.634 -6.513,-3.986 2.223,-1.389 4.337,-3.026 6.714,-4.061 1.169,-0.51 3.126,-0.386 4.196,0.29 2.388,1.509 4.442,3.545 6.632,5.365 C 3.148,-1.562 0.802,-0.397 0,0 m -5.477,-10.538 c -2.262,0.139 -4.967,-0.485 -6.502,0.579 -2.502,1.735 -5.843,4.559 -5.863,6.947 -0.019,2.506 3.023,6.525 5.492,7.24 4.511,1.307 9.831,1.635 14.339,0.495 C 4.958,3.971 8.409,0.238 9.101,-2.749 9.498,-4.47 5.155,-7.93 2.337,-9.541 c -2.121,-1.213 -5.211,-0.73 -7.814,-0.997" /></g><g
           transform="translate(170.0396,108.9033)"
           id="g68"><path
             id="path70"
             style="fill:#393737;fill-opacity:1;fill-rule:nonzero;stroke:none"
             d="m 0,0 c -3.024,2.326 -5.245,4.808 -5.948,4.435 -2.46,-1.308 -4.396,-3.601 -6.531,-5.519 1.296,-1.373 3,-4.109 3.814,-3.866 C -6.06,-4.174 -3.785,-2.292 0,0 M -6.209,11.276 C -0.676,10.747 0.731,6.29 0.756,1.065 0.785,-5.1 -2.989,-9.083 -8.319,-8.937 c -5.802,0.16 -11.312,4.666 -11.348,9.281 -0.038,5.112 6.824,11.055 13.458,10.932" /></g><g
           transform="translate(307.4307,149.6884)"
           id="g72"><path
             id="path74"
             style="fill:#373535;fill-opacity:1;fill-rule:nonzero;stroke:none"
             d="m 0,0 c -6.074,0.012 -11.254,-5.459 -11.277,-11.91 -0.022,-6.106 4.758,-10.538 11.436,-10.605 6.625,-0.065 11.288,4.413 11.149,10.705 C 11.156,-5.044 6.339,-0.013 0,0 m 14.349,-12.528 c -0.161,-7.623 -5.92,-13.043 -13.806,-12.993 -8.251,0.053 -14.506,6.375 -14.195,14.348 0.329,8.423 5.761,13.788 13.861,13.693 8.892,-0.107 14.332,-5.896 14.14,-15.048" /></g><g
           transform="translate(447.4287,107.8134)"
           id="g76"><path
             id="path78"
             style="fill:#373535;fill-opacity:1;fill-rule:nonzero;stroke:none"
             d="m 0,0 c -3.68,2.186 -5.874,4.533 -7.598,4.228 -1.816,-0.323 -4.083,-3.029 -4.409,-4.984 -0.195,-1.17 2.96,-4.075 4.6,-4.067 C -5.492,-4.815 -3.586,-2.484 0,0 M -8.229,11.315 C -2.771,11.123 1.256,6.73 0.964,1.289 c -0.289,-5.378 -5.09,-9.233 -11.166,-8.855 -5.764,0.358 -8.943,3.324 -8.697,9.276 0.231,5.593 5.011,9.805 10.67,9.605" /></g><g
           transform="translate(220.7705,113.0224)"
           id="g80"><path
             id="path82"
             style="fill:#ffffff;fill-opacity:1;fill-rule:nonzero;stroke:none"
             d="M 0,0 C -5.055,-0.269 -10.109,-0.537 -16.343,-0.868 -10.962,5.008 -5.641,5.463 0,0" /></g><g
           transform="translate(390.6309,116.583)"
           id="g84"><path
             id="path86"
             style="fill:#ffffff;fill-opacity:1;fill-rule:nonzero;stroke:none"
             d="m 0,0 c 0.802,-0.397 3.148,-1.562 5.496,-2.727 -2.19,-1.82 -4.244,-3.856 -6.632,-5.365 -1.07,-0.676 -3.027,-0.8 -4.196,-0.29 -2.377,1.035 -4.491,2.672 -6.714,4.061 2.159,1.352 4.241,2.861 6.513,3.986 C -4.547,0.153 -3.169,-0.149 0,0" /></g><g
           transform="translate(170.0396,108.9033)"
           id="g88"><path
             id="path90"
             style="fill:#ffffff;fill-opacity:1;fill-rule:nonzero;stroke:none"
             d="m 0,0 c -3.785,-2.292 -6.06,-4.174 -8.665,-4.95 -0.814,-0.243 -2.518,2.493 -3.814,3.866 2.135,1.918 4.071,4.211 6.531,5.519 C -5.245,4.808 -3.024,2.326 0,0" /></g><g
           transform="translate(307.4307,149.6884)"
           id="g92"><path
             id="path94"
             style="fill:#ffffff;fill-opacity:1;fill-rule:nonzero;stroke:none"
             d="m 0,0 c 6.339,-0.013 11.156,-5.044 11.308,-11.81 0.139,-6.292 -4.524,-10.77 -11.149,-10.705 -6.678,0.067 -11.458,4.499 -11.436,10.605 C -11.254,-5.459 -6.074,0.012 0,0" /></g><g
           transform="translate(447.4287,107.8134)"
           id="g96"><path
             id="path98"
             style="fill:#ffffff;fill-opacity:1;fill-rule:nonzero;stroke:none"
             d="m 0,0 c -3.586,-2.484 -5.492,-4.815 -7.407,-4.823 -1.64,-0.008 -4.795,2.897 -4.6,4.067 0.326,1.955 2.593,4.661 4.409,4.984 C -5.874,4.533 -3.68,2.186 0,0" /></g><g
           transform="translate(309.5693,189.4619)"
           id="g100"><path
             id="path102"
             style="fill:#393737;fill-opacity:1;fill-rule:nonzero;stroke:none"
             d="m 0,0 v 0.297 c 3.377,0 6.754,0.018 10.131,-0.006 3.563,-0.025 7.128,-0.082 10.691,-0.145 15.565,-0.279 13.515,-2.744 13.643,13.899 0.034,4.556 -1.95,6.463 -6.359,6.537 -15.568,0.262 -31.135,0.813 -46.704,0.841 -14.098,0.025 -15.262,-1.574 -14.942,-15.556 0.099,-4.309 1.602,-6.014 5.963,-5.925 C -18.388,0.131 -9.193,0 0,0 m -2.148,-2.801 c -9.953,0 -19.906,0.011 -29.859,-0.003 -7.177,-0.01 -8.424,1.248 -8.319,8.564 0.083,5.799 0.225,11.597 0.281,17.396 0.038,3.99 1.639,6.465 5.974,6.434 20.824,-0.151 41.655,-0.065 62.469,-0.601 7.023,-0.181 8.274,-2.337 8.296,-9.272 C 36.711,14.478 36.587,9.235 36.739,4 36.879,-0.771 34.722,-2.799 29.976,-2.752 19.269,-2.645 8.56,-2.718 -2.148,-2.718 Z" /></g><path
           id="path104"
           style="fill:#8e6f45;fill-opacity:1;fill-rule:nonzero;stroke:#292929;stroke-width:4;stroke-linecap:butt;stroke-linejoin:miter;stroke-miterlimit:10;stroke-dasharray:none;stroke-opacity:1"
           d="M 463.959,229.586 H 162.48 v 104.143 h 301.479 z" /><g
           transform="translate(256.0762,333.7285)"
           id="g106"><path
             id="path108"
             style="fill:#8e6f45;fill-opacity:1;fill-rule:nonzero;stroke:none"
             d="M 0,0 C 0,0 57.813,1.276 54.854,-104.143 H -93.596 L -93.596,0 Z" /></g><g
           transform="translate(256.0762,333.7285)"
           id="g110"><path
             id="path112"
             style="fill:none;stroke:#292929;stroke-width:4;stroke-linecap:butt;stroke-linejoin:miter;stroke-miterlimit:10;stroke-dasharray:none;stroke-opacity:1"
             d="M 0,0 C 0,0 57.813,1.276 54.854,-104.143 H -93.596 L -93.596,0 Z" /></g><g
           transform="translate(310.9307,229.5859)"
           id="g114"><path
             id="path116"
             style="fill:#8e6f45;fill-opacity:1;fill-rule:nonzero;stroke:none"
             d="m 0,0 c 0,0 -18.618,98.805 76.425,104.143 95.043,5.338 76.603,0 76.603,0 V 0 Z" /></g><g
           transform="translate(310.9307,229.5859)"
           id="g118"><path
             id="path120"
             style="fill:none;stroke:#292929;stroke-width:4;stroke-linecap:butt;stroke-linejoin:miter;stroke-miterlimit:10;stroke-dasharray:none;stroke-opacity:1"
             d="m 0,0 c 0,0 -18.618,98.805 76.425,104.143 95.043,5.338 76.603,0 76.603,0 V 0 Z" /></g><g
           transform="translate(416.792,270.6777)"
           id="g122"><path
             id="path124"
             style="fill:#292929;fill-opacity:1;fill-rule:nonzero;stroke:none"
             d="m 0,0 c -0.537,-0.051 -1.409,-0.095 -2.269,-0.223 -5.888,-0.873 -13.048,-9.958 -11.58,-16.022 1.035,-4.273 2.557,-8.095 5.87,-11.07 5.011,-4.502 13.968,-4.583 19.389,-1.496 4.223,2.406 6.22,6.101 6.167,10.87 -0.053,4.704 -2.058,8.684 -5.161,12.089 C 9.194,-2.317 5.282,-0.045 0,0 m -17.019,-14.807 c 0.024,2.817 0.497,5.321 1.687,7.662 0.55,1.083 0.697,2.32 1.34,3.373 3.569,5.85 9.039,8.212 15.589,7.915 9.043,-0.411 14.777,-5.703 18.338,-13.604 2.046,-4.542 2.423,-9.309 1.113,-14.178 -1.277,-4.751 -4.181,-8.059 -8.711,-9.902 -5.63,-2.29 -11.382,-2.51 -17.108,-0.48 -6.652,2.357 -9.811,7.713 -11.606,14.119 -0.485,1.729 -0.622,3.514 -0.642,5.095" /></g><g
           transform="translate(420.6182,248.8008)"
           id="g126"><path
             id="path128"
             style="fill:#5d5945;fill-opacity:1;fill-rule:nonzero;stroke:none"
             d="M 0,0 C 0.175,0.009 0.574,-0.016 0.956,0.054 5.823,0.933 7.341,3.058 6.935,6.702 6.854,7.43 6.677,8.163 6.431,8.854 5.096,12.597 0.559,13.932 -2.553,11.521 -3.713,10.622 -4.249,9.202 -3.749,8.355 -3.236,7.487 -2.356,7.457 -0.717,8.25 0.451,8.814 2.048,8.449 2.628,7.485 3.211,6.516 2.833,5.048 1.689,4.294 0.324,3.395 -1.186,2.793 -2.854,2.982 -3.56,3.063 -3.778,2.842 -3.894,2.227 -4.062,1.333 -3.836,0.706 -2.921,0.377 -2.04,0.062 -1.133,0.021 0,0 M -3.826,21.877 C 1.456,21.832 5.368,19.56 8.59,16.025 11.692,12.62 13.698,8.64 13.751,3.936 c 0.053,-4.769 -1.944,-8.464 -6.167,-10.87 -5.421,-3.087 -14.378,-3.006 -19.39,1.496 -3.312,2.975 -4.835,6.797 -5.869,11.07 -1.469,6.064 5.692,15.149 11.58,16.022 0.86,0.128 1.732,0.172 2.269,0.223" /></g><g
           transform="translate(420.6182,248.8008)"
           id="g130"><path
             id="path132"
             style="fill:#292929;fill-opacity:1;fill-rule:nonzero;stroke:none"
             d="m 0,0 c -1.133,0.021 -2.04,0.062 -2.921,0.377 -0.915,0.329 -1.141,0.956 -0.973,1.85 0.116,0.615 0.334,0.836 1.04,0.755 1.668,-0.189 3.178,0.413 4.543,1.312 1.144,0.754 1.522,2.222 0.939,3.191 -0.58,0.964 -2.177,1.329 -3.345,0.765 -1.639,-0.793 -2.519,-0.763 -3.032,0.105 -0.5,0.847 0.036,2.267 1.196,3.166 3.112,2.411 7.649,1.076 8.984,-2.667 C 6.677,8.163 6.854,7.43 6.935,6.702 7.341,3.058 5.823,0.933 0.956,0.054 0.574,-0.016 0.175,0.009 0,0" /></g><g
           transform="translate(196.9766,264.9775)"
           id="g134"><path
             id="path136"
             style="fill:#292929;fill-opacity:1;fill-rule:nonzero;stroke:none"
             d="m 0,0 c -3.103,-3.404 -5.109,-7.385 -5.162,-12.09 -0.053,-4.767 1.945,-8.463 6.167,-10.868 5.421,-3.088 14.378,-3.007 19.39,1.495 3.312,2.975 4.834,6.798 5.869,11.07 1.468,6.065 -5.691,15.15 -11.58,16.023 -0.86,0.127 -1.732,0.171 -2.268,0.223 C 7.133,5.808 3.221,3.534 0,0 m 28.792,-14.051 c -1.795,-6.404 -4.954,-11.761 -11.605,-14.118 -5.727,-2.029 -11.479,-1.81 -17.109,0.481 -4.53,1.842 -7.433,5.151 -8.711,9.902 -1.31,4.868 -0.933,9.636 1.113,14.177 3.562,7.902 9.296,13.193 18.339,13.604 6.55,0.298 12.019,-2.065 15.589,-7.915 0.642,-1.053 0.789,-2.29 1.34,-3.372 1.189,-2.342 1.663,-4.847 1.686,-7.662 -0.02,-1.581 -0.157,-3.367 -0.642,-5.097" /></g><g
           transform="translate(208.4863,249.33)"
           id="g138"><path
             id="path140"
             style="fill:#5d5945;fill-opacity:1;fill-rule:nonzero;stroke:none"
             d="M 0,0 C 0.915,0.328 1.142,0.955 0.974,1.85 0.858,2.464 0.639,2.685 -0.067,2.604 -1.735,2.416 -3.245,3.018 -4.61,3.917 -5.753,4.67 -6.132,6.139 -5.548,7.108 c 0.58,0.964 2.177,1.33 3.344,0.765 1.64,-0.794 2.519,-0.763 3.032,0.105 0.501,0.847 -0.036,2.266 -1.196,3.166 -3.111,2.411 -7.648,1.076 -8.983,-2.667 -0.247,-0.691 -0.423,-1.424 -0.504,-2.152 -0.406,-3.644 1.111,-5.77 5.978,-6.649 0.382,-0.069 0.782,-0.044 0.957,-0.053 C -1.788,-0.356 -0.881,-0.316 0,0 M 3.174,21.277 C 9.063,20.404 16.223,11.319 14.754,5.255 13.72,0.982 12.197,-2.841 8.885,-5.815 c -5.012,-4.502 -13.968,-4.583 -19.389,-1.496 -4.223,2.406 -6.221,6.101 -6.167,10.869 0.052,4.705 2.058,8.685 5.161,12.089 3.221,3.535 7.133,5.808 12.416,5.853 0.536,-0.052 1.408,-0.096 2.268,-0.223" /></g><g
           transform="translate(205.5659,248.9531)"
           id="g142"><path
             id="path144"
             style="fill:#292929;fill-opacity:1;fill-rule:nonzero;stroke:none"
             d="M 0,0 C 1.133,0.021 2.04,0.061 2.92,0.377 3.835,0.705 4.062,1.332 3.894,2.227 3.778,2.841 3.56,3.062 2.854,2.981 1.186,2.793 -0.325,3.395 -1.69,4.294 -2.833,5.047 -3.211,6.516 -2.627,7.485 -2.048,8.449 -0.451,8.814 0.716,8.25 2.356,7.456 3.236,7.487 3.749,8.354 4.249,9.202 3.713,10.621 2.552,11.521 -0.559,13.932 -5.096,12.597 -6.431,8.854 -6.677,8.163 -6.854,7.43 -6.935,6.702 -7.341,3.058 -5.823,0.932 -0.957,0.053 -0.574,-0.016 -0.175,0.009 0,0" /></g><path
           id="path146"
           style="fill:#ffffff;fill-opacity:1;fill-rule:nonzero;stroke:#373535;stroke-width:3;stroke-linecap:butt;stroke-linejoin:miter;stroke-miterlimit:10;stroke-dasharray:none;stroke-opacity:1"
           d="M 524.165,342.868 H 102.433 v 47.862 h 421.732 z" /><g
           transform="translate(103.9282,356.7363)"
           id="g148"><path
             id="path150"
             style="fill:none;stroke:#be5aa1;stroke-width:1;stroke-linecap:butt;stroke-linejoin:miter;stroke-miterlimit:10;stroke-dasharray:none;stroke-opacity:1"
             d="M 0,0 H 418.754" /></g><g
           transform="translate(103.9282,351.3872)"
           id="g152"><path
             id="path154"
             style="fill:none;stroke:#4959a5;stroke-width:1;stroke-linecap:butt;stroke-linejoin:miter;stroke-miterlimit:10;stroke-dasharray:none;stroke-opacity:1"
             d="M 0,0 H 418.754" /></g><g
           transform="translate(139.9736,362.8681)"
           id="g156"><path
             id="path158"
             style="fill:#373535;fill-opacity:1;fill-rule:nonzero;stroke:none"
             d="m 0,0 c 0.257,0.097 0.409,0.208 0.456,0.333 0.046,0.126 0.07,0.295 0.07,0.509 0,0.677 -0.059,1.402 -0.175,2.176 -0.118,0.774 -0.252,1.563 -0.404,2.365 -0.152,0.803 -0.315,1.606 -0.49,2.409 -0.176,0.803 -0.333,1.572 -0.474,2.308 0,0.058 -0.024,0.212 -0.07,0.464 -0.047,0.251 -0.105,0.522 -0.175,0.812 -0.071,0.291 -0.129,0.557 -0.175,0.799 -0.048,0.242 -0.071,0.391 -0.071,0.45 0,0.058 0.041,0.149 0.123,0.275 0.082,0.126 0.181,0.251 0.298,0.377 0.117,0.126 0.228,0.252 0.333,0.378 0.105,0.125 0.193,0.218 0.263,0.276 h -1.017 c -0.888,0 -1.759,-0.044 -2.612,-0.131 -0.853,-0.087 -1.7,-0.184 -2.541,-0.29 -0.842,-0.107 -1.672,-0.203 -2.489,-0.291 -0.819,-0.087 -1.637,-0.13 -2.454,-0.13 -0.515,0 -0.901,0.125 -1.158,0.377 -0.257,0.251 -0.385,0.541 -0.385,0.871 0,0.309 0.075,0.546 0.228,0.711 0.151,0.164 0.414,0.352 0.789,0.566 0.069,0 0.192,0.019 0.368,0.058 0.175,0.038 0.367,0.087 0.578,0.145 0.21,0.058 0.415,0.106 0.614,0.145 0.198,0.038 0.356,0.058 0.473,0.058 3.833,0.522 7.637,0.933 11.411,1.233 3.775,0.3 7.649,0.45 11.623,0.45 h 3.786 c 0.117,0 0.321,-0.014 0.613,-0.043 0.292,-0.029 0.597,-0.063 0.912,-0.102 0.315,-0.039 0.614,-0.082 0.894,-0.13 0.28,-0.049 0.479,-0.093 0.596,-0.131 0.257,0 0.409,-0.083 0.456,-0.247 0.046,-0.164 0.07,-0.304 0.07,-0.421 0,-0.154 -0.058,-0.261 -0.175,-0.319 -0.117,-0.058 -0.252,-0.102 -0.403,-0.13 -0.153,-0.03 -0.316,-0.049 -0.491,-0.058 -0.175,-0.01 -0.333,-0.044 -0.474,-0.102 -0.047,0 -0.169,-0.043 -0.368,-0.13 -0.199,-0.088 -0.409,-0.185 -0.631,-0.291 -0.222,-0.106 -0.427,-0.203 -0.613,-0.29 -0.188,-0.087 -0.316,-0.131 -0.386,-0.131 -0.07,0 -0.199,0.025 -0.386,0.073 -0.187,0.048 -0.398,0.097 -0.631,0.145 -0.234,0.048 -0.444,0.097 -0.631,0.145 -0.187,0.048 -0.315,0.073 -0.386,0.073 -1.004,0 -2.039,-0.049 -3.102,-0.145 C 10.523,15.372 9.454,15.26 8.379,15.135 7.304,15.009 6.234,14.874 5.171,14.729 4.107,14.583 3.062,14.453 2.033,14.337 1.776,14.221 1.63,14.138 1.595,14.09 1.56,14.042 1.542,13.911 1.542,13.698 V 13.495 C 1.729,12.76 1.911,12.106 2.086,11.536 2.261,10.965 2.401,10.419 2.506,9.896 2.612,9.374 2.676,8.827 2.699,8.257 2.723,7.686 2.676,7.033 2.559,6.298 2.933,6.201 3.108,6.022 3.085,5.761 3.062,5.5 3.05,5.262 3.05,5.05 3.12,4.74 3.225,4.3 3.366,3.729 3.506,3.158 3.651,2.583 3.804,2.002 3.956,1.422 4.102,0.899 4.242,0.435 4.382,-0.029 4.487,-0.319 4.558,-0.436 4.558,-0.494 4.639,-0.648 4.803,-0.9 4.966,-1.151 5.142,-1.422 5.329,-1.712 5.516,-2.002 5.691,-2.274 5.854,-2.525 6.018,-2.777 6.1,-2.931 6.1,-2.989 V -3.396 C 6.1,-3.725 5.942,-4.02 5.627,-4.281 5.312,-4.542 4.955,-4.672 4.558,-4.672 c -0.491,0 -0.854,0.047 -1.087,0.145 -0.234,0.096 -0.415,0.241 -0.544,0.435 -0.129,0.193 -0.245,0.421 -0.35,0.682 -0.105,0.261 -0.287,0.556 -0.544,0.885 l -0.491,0.348 c -0.117,0.097 -0.233,0.189 -0.35,0.276 -0.117,0.087 -0.175,0.16 -0.175,0.218 v 0.841 c 0,0.039 -0.041,0.107 -0.123,0.203 C 0.812,-0.542 0.719,-0.445 0.613,-0.348 0.508,-0.252 0.397,-0.169 0.28,-0.102 0.163,-0.034 0.07,0 0,0" /></g><g
           transform="translate(139.9736,362.8681)"
           id="g160"><path
             id="path162"
             style="fill:none;stroke:#373535;stroke-width:0.5;stroke-linecap:butt;stroke-linejoin:miter;stroke-miterlimit:10;stroke-dasharray:none;stroke-opacity:1"
             d="m 0,0 c 0.257,0.097 0.409,0.208 0.456,0.333 0.046,0.126 0.07,0.295 0.07,0.509 0,0.677 -0.059,1.402 -0.175,2.176 -0.118,0.774 -0.252,1.563 -0.404,2.365 -0.152,0.803 -0.315,1.606 -0.49,2.409 -0.176,0.803 -0.333,1.572 -0.474,2.308 0,0.058 -0.024,0.212 -0.07,0.464 -0.047,0.251 -0.105,0.522 -0.175,0.812 -0.071,0.291 -0.129,0.557 -0.175,0.799 -0.048,0.242 -0.071,0.391 -0.071,0.45 0,0.058 0.041,0.149 0.123,0.275 0.082,0.126 0.181,0.251 0.298,0.377 0.117,0.126 0.228,0.252 0.333,0.378 0.105,0.125 0.193,0.218 0.263,0.276 h -1.017 c -0.888,0 -1.759,-0.044 -2.612,-0.131 -0.853,-0.087 -1.7,-0.184 -2.541,-0.29 -0.842,-0.107 -1.672,-0.203 -2.489,-0.291 -0.819,-0.087 -1.637,-0.13 -2.454,-0.13 -0.515,0 -0.901,0.125 -1.158,0.377 -0.257,0.251 -0.385,0.541 -0.385,0.871 0,0.309 0.075,0.546 0.228,0.711 0.151,0.164 0.414,0.352 0.789,0.566 0.069,0 0.192,0.019 0.368,0.058 0.175,0.038 0.367,0.087 0.578,0.145 0.21,0.058 0.415,0.106 0.614,0.145 0.198,0.038 0.356,0.058 0.473,0.058 3.833,0.522 7.637,0.933 11.411,1.233 3.775,0.3 7.649,0.45 11.623,0.45 h 3.786 c 0.117,0 0.321,-0.014 0.613,-0.043 0.292,-0.029 0.597,-0.063 0.912,-0.102 0.315,-0.039 0.614,-0.082 0.894,-0.13 0.28,-0.049 0.479,-0.093 0.596,-0.131 0.257,0 0.409,-0.083 0.456,-0.247 0.046,-0.164 0.07,-0.304 0.07,-0.421 0,-0.154 -0.058,-0.261 -0.175,-0.319 -0.117,-0.058 -0.252,-0.102 -0.403,-0.13 -0.153,-0.03 -0.316,-0.049 -0.491,-0.058 -0.175,-0.01 -0.333,-0.044 -0.474,-0.102 -0.047,0 -0.169,-0.043 -0.368,-0.13 -0.199,-0.088 -0.409,-0.185 -0.631,-0.291 -0.222,-0.106 -0.427,-0.203 -0.613,-0.29 -0.188,-0.087 -0.316,-0.131 -0.386,-0.131 -0.07,0 -0.199,0.025 -0.386,0.073 -0.187,0.048 -0.398,0.097 -0.631,0.145 -0.234,0.048 -0.444,0.097 -0.631,0.145 -0.187,0.048 -0.315,0.073 -0.386,0.073 -1.004,0 -2.039,-0.049 -3.102,-0.145 C 10.523,15.372 9.454,15.26 8.379,15.135 7.304,15.009 6.234,14.874 5.171,14.729 4.107,14.583 3.062,14.453 2.033,14.337 1.776,14.221 1.63,14.138 1.595,14.09 1.56,14.042 1.542,13.911 1.542,13.698 V 13.495 C 1.729,12.76 1.911,12.106 2.086,11.536 2.261,10.965 2.401,10.419 2.506,9.896 2.612,9.374 2.676,8.827 2.699,8.257 2.723,7.686 2.676,7.033 2.559,6.298 2.933,6.201 3.108,6.022 3.085,5.761 3.062,5.5 3.05,5.262 3.05,5.05 3.12,4.74 3.225,4.3 3.366,3.729 3.506,3.158 3.651,2.583 3.804,2.002 3.956,1.422 4.102,0.899 4.242,0.435 4.382,-0.029 4.487,-0.319 4.558,-0.436 4.558,-0.494 4.639,-0.648 4.803,-0.9 4.966,-1.151 5.142,-1.422 5.329,-1.712 5.516,-2.002 5.691,-2.274 5.854,-2.525 6.018,-2.777 6.1,-2.931 6.1,-2.989 V -3.396 C 6.1,-3.725 5.942,-4.02 5.627,-4.281 5.312,-4.542 4.955,-4.672 4.558,-4.672 c -0.491,0 -0.854,0.047 -1.087,0.145 -0.234,0.096 -0.415,0.241 -0.544,0.435 -0.129,0.193 -0.245,0.421 -0.35,0.682 -0.105,0.261 -0.287,0.556 -0.544,0.885 l -0.491,0.348 c -0.117,0.097 -0.233,0.189 -0.35,0.276 -0.117,0.087 -0.175,0.16 -0.175,0.218 v 0.841 c 0,0.039 -0.041,0.107 -0.123,0.203 C 0.812,-0.542 0.719,-0.445 0.613,-0.348 0.508,-0.252 0.397,-0.169 0.28,-0.102 0.163,-0.034 0.07,0 0,0 Z" /></g><g
           transform="translate(163.9883,366.2055)"
           id="g164"><path
             id="path166"
             style="fill:#373535;fill-opacity:1;fill-rule:nonzero;stroke:none"
             d="m 0,0 c -0.07,0.058 -0.135,0.218 -0.192,0.479 -0.059,0.261 -0.112,0.561 -0.159,0.899 -0.046,0.339 -0.082,0.678 -0.105,1.017 -0.023,0.337 -0.035,0.604 -0.035,0.797 0,0.058 0.012,0.15 0.035,0.276 0.023,0.126 0.059,0.261 0.105,0.407 0.047,0.145 0.1,0.27 0.159,0.377 0.057,0.106 0.122,0.16 0.192,0.16 0.141,0.038 0.269,0.076 0.386,0.115 0.21,0.058 0.397,0.088 0.561,0.088 0.187,0 0.386,-0.03 0.596,-0.088 C 1.66,4.488 1.788,4.45 1.929,4.412 1.999,4.256 2.08,4.102 2.174,3.947 2.337,3.637 2.419,3.386 2.419,3.192 2.419,3.134 2.442,3.033 2.489,2.888 2.536,2.743 2.595,2.583 2.665,2.409 2.735,2.235 2.793,2.07 2.84,1.916 2.887,1.76 2.91,1.654 2.91,1.596 2.91,1.499 2.957,1.252 3.05,0.856 3.144,0.459 3.249,0.039 3.366,-0.406 c 0.116,-0.446 0.222,-0.866 0.316,-1.262 0.092,-0.397 0.14,-0.644 0.14,-0.741 l 0.49,-0.812 C 4.383,-3.415 4.47,-3.686 4.575,-4.034 4.681,-4.382 4.792,-4.726 4.909,-5.064 5.025,-5.403 5.125,-5.703 5.207,-5.964 5.288,-6.225 5.329,-6.385 5.329,-6.443 5.329,-6.54 5.3,-6.675 5.242,-6.849 5.183,-7.023 5.095,-7.197 4.979,-7.372 4.861,-7.545 4.727,-7.701 4.575,-7.836 4.423,-7.971 4.254,-8.039 4.067,-8.039 H 3.822 c -0.117,0.058 -0.269,0.14 -0.456,0.247 -0.187,0.106 -0.38,0.227 -0.578,0.362 -0.2,0.136 -0.375,0.257 -0.526,0.363 C 2.109,-6.96 1.999,-6.878 1.929,-6.82 1.858,-6.627 1.776,-6.453 1.683,-6.298 1.519,-5.988 1.437,-5.766 1.437,-5.63 1.368,-5.417 1.28,-5.064 1.175,-4.571 1.069,-4.078 0.964,-3.555 0.859,-3.004 0.754,-2.452 0.66,-1.93 0.579,-1.437 0.497,-0.943 0.456,-0.6 0.456,-0.406 Z m -1.454,11.031 c 0,0.406 0.053,0.744 0.158,1.016 0.105,0.27 0.461,0.406 1.069,0.406 1.215,0 2.127,-0.31 2.735,-0.929 0.607,-0.619 0.911,-1.383 0.911,-2.293 V 8.825 C 3.419,8.728 3.285,8.637 3.016,8.549 2.747,8.462 2.554,8.419 2.438,8.419 2.297,8.438 2.168,8.477 2.052,8.535 1.794,8.651 1.596,8.748 1.456,8.825 1.339,8.883 1.146,8.989 0.877,9.145 0.608,9.299 0.322,9.464 0.019,9.638 c -0.305,0.174 -0.597,0.338 -0.877,0.493 -0.28,0.155 -0.479,0.262 -0.596,0.32 z" /></g><g
           transform="translate(163.9883,366.2055)"
           id="g168"><path
             id="path170"
             style="fill:none;stroke:#373535;stroke-width:0.5;stroke-linecap:butt;stroke-linejoin:miter;stroke-miterlimit:10;stroke-dasharray:none;stroke-opacity:1"
             d="m 0,0 c -0.07,0.058 -0.135,0.218 -0.192,0.479 -0.059,0.261 -0.112,0.561 -0.159,0.899 -0.046,0.339 -0.082,0.678 -0.105,1.017 -0.023,0.337 -0.035,0.604 -0.035,0.797 0,0.058 0.012,0.15 0.035,0.276 0.023,0.126 0.059,0.261 0.105,0.407 0.047,0.145 0.1,0.27 0.159,0.377 0.057,0.106 0.122,0.16 0.192,0.16 0.141,0.038 0.269,0.076 0.386,0.115 0.21,0.058 0.397,0.088 0.561,0.088 0.187,0 0.386,-0.03 0.596,-0.088 C 1.66,4.488 1.788,4.45 1.929,4.412 1.999,4.256 2.08,4.102 2.174,3.947 2.337,3.637 2.419,3.386 2.419,3.192 2.419,3.134 2.442,3.033 2.489,2.888 2.536,2.743 2.595,2.583 2.665,2.409 2.735,2.235 2.793,2.07 2.84,1.916 2.887,1.76 2.91,1.654 2.91,1.596 2.91,1.499 2.957,1.252 3.05,0.856 3.144,0.459 3.249,0.039 3.366,-0.406 c 0.116,-0.446 0.222,-0.866 0.316,-1.262 0.092,-0.397 0.14,-0.644 0.14,-0.741 l 0.49,-0.812 C 4.383,-3.415 4.47,-3.686 4.575,-4.034 4.681,-4.382 4.792,-4.726 4.909,-5.064 5.025,-5.403 5.125,-5.703 5.207,-5.964 5.288,-6.225 5.329,-6.385 5.329,-6.443 5.329,-6.54 5.3,-6.675 5.242,-6.849 5.183,-7.023 5.095,-7.197 4.979,-7.372 4.861,-7.545 4.727,-7.701 4.575,-7.836 4.423,-7.971 4.254,-8.039 4.067,-8.039 H 3.822 c -0.117,0.058 -0.269,0.14 -0.456,0.247 -0.187,0.106 -0.38,0.227 -0.578,0.362 -0.2,0.136 -0.375,0.257 -0.526,0.363 C 2.109,-6.96 1.999,-6.878 1.929,-6.82 1.858,-6.627 1.776,-6.453 1.683,-6.298 1.519,-5.988 1.437,-5.766 1.437,-5.63 1.368,-5.417 1.28,-5.064 1.175,-4.571 1.069,-4.078 0.964,-3.555 0.859,-3.004 0.754,-2.452 0.66,-1.93 0.579,-1.437 0.497,-0.943 0.456,-0.6 0.456,-0.406 Z m -1.454,11.031 c 0,0.406 0.053,0.744 0.158,1.016 0.105,0.27 0.461,0.406 1.069,0.406 1.215,0 2.127,-0.31 2.735,-0.929 0.607,-0.619 0.911,-1.383 0.911,-2.293 V 8.825 C 3.419,8.728 3.285,8.637 3.016,8.549 2.747,8.462 2.554,8.419 2.438,8.419 2.297,8.438 2.168,8.477 2.052,8.535 1.794,8.651 1.596,8.748 1.456,8.825 1.339,8.883 1.146,8.989 0.877,9.145 0.608,9.299 0.322,9.464 0.019,9.638 c -0.305,0.174 -0.597,0.338 -0.877,0.493 -0.28,0.155 -0.479,0.262 -0.596,0.32 z" /></g><g
           transform="translate(170.2637,359.0371)"
           id="g172"><path
             id="path174"
             style="fill:#373535;fill-opacity:1;fill-rule:nonzero;stroke:none"
             d="m 0,0 c 0.07,0.116 0.158,0.314 0.263,0.595 0.105,0.28 0.211,0.571 0.316,0.871 0.105,0.3 0.21,0.585 0.315,0.856 C 1,2.593 1.087,2.786 1.157,2.902 1.368,3.521 1.548,4.116 1.701,4.687 1.853,5.258 2.039,5.809 2.262,6.341 2.483,6.874 2.775,7.376 3.138,7.851 3.5,8.324 4.008,8.774 4.663,9.2 H 4.979 C 5.259,9.2 5.499,9.151 5.697,9.055 5.896,8.958 6.136,8.842 6.416,8.707 7.07,8.339 7.777,7.909 8.537,7.415 9.296,6.922 10.085,6.447 10.903,5.993 c 0.818,-0.455 1.666,-0.842 2.542,-1.161 0.877,-0.319 1.747,-0.478 2.612,-0.478 0.654,0 1.163,0.207 1.526,0.624 0.361,0.415 0.625,0.914 0.788,1.494 0.163,0.58 0.257,1.171 0.28,1.77 0.024,0.6 0.036,1.084 0.036,1.451 v 1.916 c 0,0.309 -0.094,0.614 -0.281,0.914 -0.187,0.3 -0.385,0.604 -0.596,0.914 -0.21,0.31 -0.409,0.614 -0.596,0.915 -0.187,0.299 -0.28,0.594 -0.28,0.885 0,0.174 0.046,0.314 0.14,0.42 0.093,0.107 0.216,0.179 0.368,0.218 0.152,0.039 0.316,0.063 0.491,0.073 0.175,0.009 0.333,0.014 0.473,0.014 0.211,0 0.496,-0.029 0.859,-0.087 0.362,-0.058 0.719,-0.145 1.069,-0.261 0.351,-0.116 0.654,-0.266 0.912,-0.45 0.257,-0.184 0.386,-0.402 0.386,-0.653 V 2.438 C 21.632,2.38 21.584,2.278 21.491,2.133 21.397,1.988 21.287,1.843 21.158,1.698 21.03,1.553 20.896,1.412 20.755,1.277 20.615,1.142 20.51,1.045 20.439,0.987 20.229,0.812 20.013,0.687 19.791,0.609 19.568,0.532 19.347,0.483 19.125,0.464 c -0.223,-0.019 -0.444,-0.019 -0.666,0 -0.223,0.019 -0.438,0.03 -0.649,0.03 -1.029,0 -2.086,0.149 -3.173,0.449 -1.087,0.3 -2.074,0.634 -2.962,1.001 C 11.604,2.002 11.4,2.123 11.062,2.307 10.722,2.491 10.348,2.689 9.939,2.902 9.53,3.115 9.15,3.318 8.8,3.512 8.449,3.705 8.239,3.831 8.169,3.889 7.958,4.005 7.789,4.097 7.661,4.165 7.532,4.232 7.409,4.281 7.292,4.31 7.175,4.339 7.047,4.354 6.907,4.354 H 6.416 C 5.878,4.354 5.499,4.223 5.276,3.961 5.054,3.7 4.902,3.371 4.821,2.975 4.739,2.578 4.704,2.152 4.716,1.698 4.727,1.243 4.704,0.817 4.646,0.421 4.587,0.024 4.458,-0.305 4.26,-0.566 4.061,-0.827 3.716,-0.958 3.226,-0.958 2.618,-0.958 2.074,-0.89 1.595,-0.754 1.116,-0.619 0.584,-0.368 0,0" /></g><g
           transform="translate(170.2637,359.0371)"
           id="g176"><path
             id="path178"
             style="fill:none;stroke:#373535;stroke-width:0.5;stroke-linecap:butt;stroke-linejoin:miter;stroke-miterlimit:10;stroke-dasharray:none;stroke-opacity:1"
             d="m 0,0 c 0.07,0.116 0.158,0.314 0.263,0.595 0.105,0.28 0.211,0.571 0.316,0.871 0.105,0.3 0.21,0.585 0.315,0.856 C 1,2.593 1.087,2.786 1.157,2.902 1.368,3.521 1.548,4.116 1.701,4.687 1.853,5.258 2.039,5.809 2.262,6.341 2.483,6.874 2.775,7.376 3.138,7.851 3.5,8.324 4.008,8.774 4.663,9.2 H 4.979 C 5.259,9.2 5.499,9.151 5.697,9.055 5.896,8.958 6.136,8.842 6.416,8.707 7.07,8.339 7.777,7.909 8.537,7.415 9.296,6.922 10.085,6.447 10.903,5.993 c 0.818,-0.455 1.666,-0.842 2.542,-1.161 0.877,-0.319 1.747,-0.478 2.612,-0.478 0.654,0 1.163,0.207 1.526,0.624 0.361,0.415 0.625,0.914 0.788,1.494 0.163,0.58 0.257,1.171 0.28,1.77 0.024,0.6 0.036,1.084 0.036,1.451 v 1.916 c 0,0.309 -0.094,0.614 -0.281,0.914 -0.187,0.3 -0.385,0.604 -0.596,0.914 -0.21,0.31 -0.409,0.614 -0.596,0.915 -0.187,0.299 -0.28,0.594 -0.28,0.885 0,0.174 0.046,0.314 0.14,0.42 0.093,0.107 0.216,0.179 0.368,0.218 0.152,0.039 0.316,0.063 0.491,0.073 0.175,0.009 0.333,0.014 0.473,0.014 0.211,0 0.496,-0.029 0.859,-0.087 0.362,-0.058 0.719,-0.145 1.069,-0.261 0.351,-0.116 0.654,-0.266 0.912,-0.45 0.257,-0.184 0.386,-0.402 0.386,-0.653 V 2.438 C 21.632,2.38 21.584,2.278 21.491,2.133 21.397,1.988 21.287,1.843 21.158,1.698 21.03,1.553 20.896,1.412 20.755,1.277 20.615,1.142 20.51,1.045 20.439,0.987 20.229,0.812 20.013,0.687 19.791,0.609 19.568,0.532 19.347,0.483 19.125,0.464 c -0.223,-0.019 -0.444,-0.019 -0.666,0 -0.223,0.019 -0.438,0.03 -0.649,0.03 -1.029,0 -2.086,0.149 -3.173,0.449 -1.087,0.3 -2.074,0.634 -2.962,1.001 C 11.604,2.002 11.4,2.123 11.062,2.307 10.722,2.491 10.348,2.689 9.939,2.902 9.53,3.115 9.15,3.318 8.8,3.512 8.449,3.705 8.239,3.831 8.169,3.889 7.958,4.005 7.789,4.097 7.661,4.165 7.532,4.232 7.409,4.281 7.292,4.31 7.175,4.339 7.047,4.354 6.907,4.354 H 6.416 C 5.878,4.354 5.499,4.223 5.276,3.961 5.054,3.7 4.902,3.371 4.821,2.975 4.739,2.578 4.704,2.152 4.716,1.698 4.727,1.243 4.704,0.817 4.646,0.421 4.587,0.024 4.458,-0.305 4.26,-0.566 4.061,-0.827 3.716,-0.958 3.226,-0.958 2.618,-0.958 2.074,-0.89 1.595,-0.754 1.116,-0.619 0.584,-0.368 0,0 Z" /></g><g
           transform="translate(194.209,370.0366)"
           id="g180"><path
             id="path182"
             style="fill:#373535;fill-opacity:1;fill-rule:nonzero;stroke:none"
             d="m 0,0 c 0.07,0.058 0.187,0.116 0.351,0.174 0.163,0.058 0.333,0.111 0.508,0.159 0.175,0.049 0.35,0.083 0.526,0.102 0.175,0.019 0.298,0.029 0.368,0.029 0.631,0 1.092,-0.189 1.385,-0.566 0.292,-0.377 0.52,-0.846 0.683,-1.407 0.164,-0.562 0.327,-1.171 0.491,-1.828 0.164,-0.659 0.421,-1.268 0.771,-1.829 0.351,-0.562 0.848,-1.03 1.491,-1.408 0.642,-0.377 1.548,-0.566 2.717,-0.566 0.584,0 1.109,0.078 1.577,0.233 0.467,0.155 1.005,0.232 1.613,0.232 0.444,0 0.818,-0.02 1.122,-0.058 0.303,-0.039 0.607,-0.174 0.912,-0.407 0.21,-0.173 0.526,-0.435 0.946,-0.783 0.421,-0.348 0.853,-0.702 1.297,-1.059 0.444,-0.359 0.842,-0.683 1.192,-0.973 0.351,-0.29 0.561,-0.464 0.631,-0.522 0.07,-0.058 0.216,-0.281 0.439,-0.668 0.221,-0.387 0.461,-0.802 0.718,-1.248 0.257,-0.444 0.496,-0.856 0.719,-1.233 0.222,-0.377 0.368,-0.595 0.438,-0.653 0.093,-0.116 0.269,-0.295 0.526,-0.537 0.257,-0.242 0.555,-0.508 0.894,-0.798 0.339,-0.29 0.701,-0.59 1.087,-0.9 0.386,-0.309 0.754,-0.604 1.104,-0.885 0.351,-0.28 0.672,-0.527 0.964,-0.74 0.292,-0.213 0.509,-0.358 0.649,-0.435 0,-0.058 0.029,-0.155 0.088,-0.29 0.058,-0.136 0.122,-0.281 0.192,-0.436 0.071,-0.154 0.135,-0.3 0.193,-0.435 0.058,-0.135 0.088,-0.232 0.088,-0.29 0.07,-0.174 0.263,-0.329 0.578,-0.465 0.316,-0.135 0.632,-0.265 0.947,-0.391 0.316,-0.126 0.566,-0.271 0.753,-0.436 0.188,-0.164 0.211,-0.363 0.071,-0.595 0,-0.058 -0.076,-0.154 -0.228,-0.29 -0.152,-0.135 -0.327,-0.276 -0.526,-0.421 -0.199,-0.145 -0.398,-0.285 -0.596,-0.42 -0.199,-0.136 -0.333,-0.233 -0.403,-0.29 h -0.841 c -0.445,0 -0.789,0.019 -1.035,0.057 -0.245,0.039 -0.578,0.174 -0.999,0.407 -0.14,0.116 -0.298,0.271 -0.473,0.464 -0.176,0.194 -0.345,0.387 -0.509,0.58 -0.163,0.194 -0.315,0.368 -0.455,0.523 -0.141,0.155 -0.246,0.261 -0.316,0.319 -0.725,0.852 -1.496,1.65 -2.314,2.395 -0.818,0.744 -1.589,1.533 -2.313,2.365 -0.234,0.309 -0.585,0.769 -1.052,1.378 -0.468,0.61 -0.982,1.229 -1.543,1.858 -0.561,0.629 -1.134,1.19 -1.718,1.683 -0.584,0.493 -1.087,0.769 -1.507,0.827 H 7.573 C 6.123,-10.303 4.937,-9.834 4.014,-9.069 3.091,-8.305 2.36,-7.411 1.823,-6.385 1.285,-5.36 0.882,-4.276 0.614,-3.134 0.345,-1.993 0.14,-0.948 0,0" /></g><g
           transform="translate(194.209,370.0366)"
           id="g184"><path
             id="path186"
             style="fill:none;stroke:#373535;stroke-width:0.5;stroke-linecap:butt;stroke-linejoin:miter;stroke-miterlimit:10;stroke-dasharray:none;stroke-opacity:1"
             d="m 0,0 c 0.07,0.058 0.187,0.116 0.351,0.174 0.163,0.058 0.333,0.111 0.508,0.159 0.175,0.049 0.35,0.083 0.526,0.102 0.175,0.019 0.298,0.029 0.368,0.029 0.631,0 1.092,-0.189 1.385,-0.566 0.292,-0.377 0.52,-0.846 0.683,-1.407 0.164,-0.562 0.327,-1.171 0.491,-1.828 0.164,-0.659 0.421,-1.268 0.771,-1.829 0.351,-0.562 0.848,-1.03 1.491,-1.408 0.642,-0.377 1.548,-0.566 2.717,-0.566 0.584,0 1.109,0.078 1.577,0.233 0.467,0.155 1.005,0.232 1.613,0.232 0.444,0 0.818,-0.02 1.122,-0.058 0.303,-0.039 0.607,-0.174 0.912,-0.407 0.21,-0.173 0.526,-0.435 0.946,-0.783 0.421,-0.348 0.853,-0.702 1.297,-1.059 0.444,-0.359 0.842,-0.683 1.192,-0.973 0.351,-0.29 0.561,-0.464 0.631,-0.522 0.07,-0.058 0.216,-0.281 0.439,-0.668 0.221,-0.387 0.461,-0.802 0.718,-1.248 0.257,-0.444 0.496,-0.856 0.719,-1.233 0.222,-0.377 0.368,-0.595 0.438,-0.653 0.093,-0.116 0.269,-0.295 0.526,-0.537 0.257,-0.242 0.555,-0.508 0.894,-0.798 0.339,-0.29 0.701,-0.59 1.087,-0.9 0.386,-0.309 0.754,-0.604 1.104,-0.885 0.351,-0.28 0.672,-0.527 0.964,-0.74 0.292,-0.213 0.509,-0.358 0.649,-0.435 0,-0.058 0.029,-0.155 0.088,-0.29 0.058,-0.136 0.122,-0.281 0.192,-0.436 0.071,-0.154 0.135,-0.3 0.193,-0.435 0.058,-0.135 0.088,-0.232 0.088,-0.29 0.07,-0.174 0.263,-0.329 0.578,-0.465 0.316,-0.135 0.632,-0.265 0.947,-0.391 0.316,-0.126 0.566,-0.271 0.753,-0.436 0.188,-0.164 0.211,-0.363 0.071,-0.595 0,-0.058 -0.076,-0.154 -0.228,-0.29 -0.152,-0.135 -0.327,-0.276 -0.526,-0.421 -0.199,-0.145 -0.398,-0.285 -0.596,-0.42 -0.199,-0.136 -0.333,-0.233 -0.403,-0.29 h -0.841 c -0.445,0 -0.789,0.019 -1.035,0.057 -0.245,0.039 -0.578,0.174 -0.999,0.407 -0.14,0.116 -0.298,0.271 -0.473,0.464 -0.176,0.194 -0.345,0.387 -0.509,0.58 -0.163,0.194 -0.315,0.368 -0.455,0.523 -0.141,0.155 -0.246,0.261 -0.316,0.319 -0.725,0.852 -1.496,1.65 -2.314,2.395 -0.818,0.744 -1.589,1.533 -2.313,2.365 -0.234,0.309 -0.585,0.769 -1.052,1.378 -0.468,0.61 -0.982,1.229 -1.543,1.858 -0.561,0.629 -1.134,1.19 -1.718,1.683 -0.584,0.493 -1.087,0.769 -1.507,0.827 H 7.573 C 6.123,-10.303 4.937,-9.834 4.014,-9.069 3.091,-8.305 2.36,-7.411 1.823,-6.385 1.285,-5.36 0.882,-4.276 0.614,-3.134 0.345,-1.993 0.14,-0.948 0,0 Z" /></g><g
           transform="translate(257.2798,362.8681)"
           id="g188"><path
             id="path190"
             style="fill:#373535;fill-opacity:1;fill-rule:nonzero;stroke:none"
             d="m 0,0 c 0.257,0.097 0.409,0.208 0.456,0.333 0.046,0.126 0.07,0.295 0.07,0.509 0,0.677 -0.059,1.402 -0.175,2.176 -0.118,0.774 -0.252,1.563 -0.404,2.365 -0.152,0.803 -0.315,1.606 -0.49,2.409 -0.176,0.803 -0.333,1.572 -0.474,2.308 0,0.058 -0.024,0.212 -0.07,0.464 -0.047,0.251 -0.105,0.522 -0.175,0.812 -0.071,0.291 -0.129,0.557 -0.175,0.799 -0.048,0.242 -0.071,0.391 -0.071,0.45 0,0.058 0.041,0.149 0.123,0.275 0.082,0.126 0.181,0.251 0.298,0.377 0.117,0.126 0.228,0.252 0.333,0.378 0.105,0.125 0.193,0.218 0.263,0.276 h -1.017 c -0.888,0 -1.759,-0.044 -2.612,-0.131 -0.853,-0.087 -1.7,-0.184 -2.541,-0.29 -0.842,-0.107 -1.672,-0.203 -2.489,-0.291 -0.819,-0.087 -1.637,-0.13 -2.454,-0.13 -0.515,0 -0.901,0.125 -1.158,0.377 -0.257,0.251 -0.385,0.541 -0.385,0.871 0,0.309 0.075,0.546 0.228,0.711 0.151,0.164 0.414,0.352 0.789,0.566 0.069,0 0.192,0.019 0.368,0.058 0.175,0.038 0.367,0.087 0.578,0.145 0.21,0.058 0.415,0.106 0.614,0.145 0.198,0.038 0.356,0.058 0.473,0.058 3.833,0.522 7.637,0.933 11.411,1.233 3.775,0.3 7.649,0.45 11.623,0.45 h 3.786 c 0.117,0 0.321,-0.014 0.613,-0.043 0.292,-0.029 0.597,-0.063 0.912,-0.102 0.315,-0.039 0.614,-0.082 0.894,-0.13 0.28,-0.049 0.479,-0.093 0.596,-0.131 0.257,0 0.409,-0.083 0.456,-0.247 0.046,-0.164 0.07,-0.304 0.07,-0.421 0,-0.154 -0.058,-0.261 -0.175,-0.319 -0.117,-0.058 -0.252,-0.102 -0.403,-0.13 -0.153,-0.03 -0.316,-0.049 -0.491,-0.058 -0.175,-0.01 -0.333,-0.044 -0.474,-0.102 -0.047,0 -0.169,-0.043 -0.368,-0.13 -0.199,-0.088 -0.409,-0.185 -0.631,-0.291 -0.222,-0.106 -0.427,-0.203 -0.613,-0.29 -0.188,-0.087 -0.316,-0.131 -0.386,-0.131 -0.07,0 -0.199,0.025 -0.386,0.073 -0.187,0.048 -0.398,0.097 -0.631,0.145 -0.234,0.048 -0.444,0.097 -0.631,0.145 -0.187,0.048 -0.315,0.073 -0.386,0.073 -1.004,0 -2.039,-0.049 -3.102,-0.145 C 10.523,15.372 9.454,15.26 8.379,15.135 7.304,15.009 6.234,14.874 5.171,14.729 4.107,14.583 3.062,14.453 2.033,14.337 1.776,14.221 1.63,14.138 1.595,14.09 1.56,14.042 1.542,13.911 1.542,13.698 V 13.495 C 1.729,12.76 1.911,12.106 2.086,11.536 2.261,10.965 2.401,10.419 2.506,9.896 2.612,9.374 2.676,8.827 2.699,8.257 2.723,7.686 2.676,7.033 2.559,6.298 2.933,6.201 3.108,6.022 3.085,5.761 3.062,5.5 3.05,5.262 3.05,5.05 3.12,4.74 3.225,4.3 3.366,3.729 3.506,3.158 3.651,2.583 3.804,2.002 3.956,1.422 4.102,0.899 4.242,0.435 4.382,-0.029 4.487,-0.319 4.558,-0.436 4.558,-0.494 4.639,-0.648 4.803,-0.9 4.966,-1.151 5.142,-1.422 5.329,-1.712 5.516,-2.002 5.691,-2.274 5.854,-2.525 6.018,-2.777 6.1,-2.931 6.1,-2.989 V -3.396 C 6.1,-3.725 5.942,-4.02 5.627,-4.281 5.312,-4.542 4.955,-4.672 4.558,-4.672 c -0.491,0 -0.854,0.047 -1.087,0.145 -0.234,0.096 -0.415,0.241 -0.544,0.435 -0.129,0.193 -0.245,0.421 -0.35,0.682 -0.105,0.261 -0.287,0.556 -0.544,0.885 l -0.491,0.348 c -0.117,0.097 -0.233,0.189 -0.35,0.276 -0.117,0.087 -0.175,0.16 -0.175,0.218 v 0.841 c 0,0.039 -0.041,0.107 -0.123,0.203 C 0.812,-0.542 0.719,-0.445 0.613,-0.348 0.508,-0.252 0.397,-0.169 0.28,-0.102 0.163,-0.034 0.07,0 0,0" /></g><g
           transform="translate(257.2798,362.8681)"
           id="g192"><path
             id="path194"
             style="fill:none;stroke:#373535;stroke-width:0.5;stroke-linecap:butt;stroke-linejoin:miter;stroke-miterlimit:10;stroke-dasharray:none;stroke-opacity:1"
             d="m 0,0 c 0.257,0.097 0.409,0.208 0.456,0.333 0.046,0.126 0.07,0.295 0.07,0.509 0,0.677 -0.059,1.402 -0.175,2.176 -0.118,0.774 -0.252,1.563 -0.404,2.365 -0.152,0.803 -0.315,1.606 -0.49,2.409 -0.176,0.803 -0.333,1.572 -0.474,2.308 0,0.058 -0.024,0.212 -0.07,0.464 -0.047,0.251 -0.105,0.522 -0.175,0.812 -0.071,0.291 -0.129,0.557 -0.175,0.799 -0.048,0.242 -0.071,0.391 -0.071,0.45 0,0.058 0.041,0.149 0.123,0.275 0.082,0.126 0.181,0.251 0.298,0.377 0.117,0.126 0.228,0.252 0.333,0.378 0.105,0.125 0.193,0.218 0.263,0.276 h -1.017 c -0.888,0 -1.759,-0.044 -2.612,-0.131 -0.853,-0.087 -1.7,-0.184 -2.541,-0.29 -0.842,-0.107 -1.672,-0.203 -2.489,-0.291 -0.819,-0.087 -1.637,-0.13 -2.454,-0.13 -0.515,0 -0.901,0.125 -1.158,0.377 -0.257,0.251 -0.385,0.541 -0.385,0.871 0,0.309 0.075,0.546 0.228,0.711 0.151,0.164 0.414,0.352 0.789,0.566 0.069,0 0.192,0.019 0.368,0.058 0.175,0.038 0.367,0.087 0.578,0.145 0.21,0.058 0.415,0.106 0.614,0.145 0.198,0.038 0.356,0.058 0.473,0.058 3.833,0.522 7.637,0.933 11.411,1.233 3.775,0.3 7.649,0.45 11.623,0.45 h 3.786 c 0.117,0 0.321,-0.014 0.613,-0.043 0.292,-0.029 0.597,-0.063 0.912,-0.102 0.315,-0.039 0.614,-0.082 0.894,-0.13 0.28,-0.049 0.479,-0.093 0.596,-0.131 0.257,0 0.409,-0.083 0.456,-0.247 0.046,-0.164 0.07,-0.304 0.07,-0.421 0,-0.154 -0.058,-0.261 -0.175,-0.319 -0.117,-0.058 -0.252,-0.102 -0.403,-0.13 -0.153,-0.03 -0.316,-0.049 -0.491,-0.058 -0.175,-0.01 -0.333,-0.044 -0.474,-0.102 -0.047,0 -0.169,-0.043 -0.368,-0.13 -0.199,-0.088 -0.409,-0.185 -0.631,-0.291 -0.222,-0.106 -0.427,-0.203 -0.613,-0.29 -0.188,-0.087 -0.316,-0.131 -0.386,-0.131 -0.07,0 -0.199,0.025 -0.386,0.073 -0.187,0.048 -0.398,0.097 -0.631,0.145 -0.234,0.048 -0.444,0.097 -0.631,0.145 -0.187,0.048 -0.315,0.073 -0.386,0.073 -1.004,0 -2.039,-0.049 -3.102,-0.145 C 10.523,15.372 9.454,15.26 8.379,15.135 7.304,15.009 6.234,14.874 5.171,14.729 4.107,14.583 3.062,14.453 2.033,14.337 1.776,14.221 1.63,14.138 1.595,14.09 1.56,14.042 1.542,13.911 1.542,13.698 V 13.495 C 1.729,12.76 1.911,12.106 2.086,11.536 2.261,10.965 2.401,10.419 2.506,9.896 2.612,9.374 2.676,8.827 2.699,8.257 2.723,7.686 2.676,7.033 2.559,6.298 2.933,6.201 3.108,6.022 3.085,5.761 3.062,5.5 3.05,5.262 3.05,5.05 3.12,4.74 3.225,4.3 3.366,3.729 3.506,3.158 3.651,2.583 3.804,2.002 3.956,1.422 4.102,0.899 4.242,0.435 4.382,-0.029 4.487,-0.319 4.558,-0.436 4.558,-0.494 4.639,-0.648 4.803,-0.9 4.966,-1.151 5.142,-1.422 5.329,-1.712 5.516,-2.002 5.691,-2.274 5.854,-2.525 6.018,-2.777 6.1,-2.931 6.1,-2.989 V -3.396 C 6.1,-3.725 5.942,-4.02 5.627,-4.281 5.312,-4.542 4.955,-4.672 4.558,-4.672 c -0.491,0 -0.854,0.047 -1.087,0.145 -0.234,0.096 -0.415,0.241 -0.544,0.435 -0.129,0.193 -0.245,0.421 -0.35,0.682 -0.105,0.261 -0.287,0.556 -0.544,0.885 l -0.491,0.348 c -0.117,0.097 -0.233,0.189 -0.35,0.276 -0.117,0.087 -0.175,0.16 -0.175,0.218 v 0.841 c 0,0.039 -0.041,0.107 -0.123,0.203 C 0.812,-0.542 0.719,-0.445 0.613,-0.348 0.508,-0.252 0.397,-0.169 0.28,-0.102 0.163,-0.034 0.07,0 0,0 Z" /></g><g
           transform="translate(281.2944,366.2055)"
           id="g196"><path
             id="path198"
             style="fill:#373535;fill-opacity:1;fill-rule:nonzero;stroke:none"
             d="m 0,0 c -0.07,0.058 -0.135,0.218 -0.192,0.479 -0.059,0.261 -0.112,0.561 -0.159,0.899 -0.046,0.339 -0.082,0.678 -0.105,1.017 -0.023,0.337 -0.035,0.604 -0.035,0.797 0,0.058 0.012,0.15 0.035,0.276 0.023,0.126 0.059,0.261 0.105,0.407 0.047,0.145 0.1,0.27 0.159,0.377 0.057,0.106 0.122,0.16 0.192,0.16 0.141,0.038 0.269,0.076 0.386,0.115 0.21,0.058 0.397,0.088 0.561,0.088 0.187,0 0.386,-0.03 0.596,-0.088 C 1.66,4.488 1.788,4.45 1.929,4.412 1.999,4.256 2.08,4.102 2.174,3.947 2.337,3.637 2.419,3.386 2.419,3.192 2.419,3.134 2.442,3.033 2.489,2.888 2.536,2.743 2.595,2.583 2.665,2.409 2.735,2.235 2.793,2.07 2.84,1.916 2.887,1.76 2.91,1.654 2.91,1.596 2.91,1.499 2.957,1.252 3.05,0.856 3.144,0.459 3.249,0.039 3.366,-0.406 c 0.116,-0.446 0.222,-0.866 0.316,-1.262 0.092,-0.397 0.14,-0.644 0.14,-0.741 l 0.49,-0.812 C 4.383,-3.415 4.47,-3.686 4.575,-4.034 4.681,-4.382 4.792,-4.726 4.909,-5.064 5.025,-5.403 5.125,-5.703 5.207,-5.964 5.288,-6.225 5.329,-6.385 5.329,-6.443 5.329,-6.54 5.3,-6.675 5.242,-6.849 5.183,-7.023 5.095,-7.197 4.979,-7.372 4.861,-7.545 4.727,-7.701 4.575,-7.836 4.423,-7.971 4.254,-8.039 4.067,-8.039 H 3.822 c -0.117,0.058 -0.269,0.14 -0.456,0.247 -0.187,0.106 -0.38,0.227 -0.578,0.362 -0.2,0.136 -0.375,0.257 -0.526,0.363 C 2.109,-6.96 1.999,-6.878 1.929,-6.82 1.858,-6.627 1.776,-6.453 1.683,-6.298 1.519,-5.988 1.437,-5.766 1.437,-5.63 1.368,-5.417 1.28,-5.064 1.175,-4.571 1.069,-4.078 0.964,-3.555 0.859,-3.004 0.754,-2.452 0.66,-1.93 0.579,-1.437 0.497,-0.943 0.456,-0.6 0.456,-0.406 Z m -1.454,11.031 c 0,0.406 0.053,0.744 0.158,1.016 0.105,0.27 0.461,0.406 1.069,0.406 1.215,0 2.127,-0.31 2.735,-0.929 0.607,-0.619 0.911,-1.383 0.911,-2.293 V 8.825 C 3.419,8.728 3.285,8.637 3.016,8.549 2.747,8.462 2.554,8.419 2.438,8.419 2.297,8.438 2.168,8.477 2.052,8.535 1.794,8.651 1.596,8.748 1.456,8.825 1.339,8.883 1.146,8.989 0.877,9.145 0.608,9.299 0.322,9.464 0.019,9.638 c -0.305,0.174 -0.597,0.338 -0.877,0.493 -0.28,0.155 -0.479,0.262 -0.596,0.32 z" /></g><g
           transform="translate(281.2944,366.2055)"
           id="g200"><path
             id="path202"
             style="fill:none;stroke:#373535;stroke-width:0.5;stroke-linecap:butt;stroke-linejoin:miter;stroke-miterlimit:10;stroke-dasharray:none;stroke-opacity:1"
             d="m 0,0 c -0.07,0.058 -0.135,0.218 -0.192,0.479 -0.059,0.261 -0.112,0.561 -0.159,0.899 -0.046,0.339 -0.082,0.678 -0.105,1.017 -0.023,0.337 -0.035,0.604 -0.035,0.797 0,0.058 0.012,0.15 0.035,0.276 0.023,0.126 0.059,0.261 0.105,0.407 0.047,0.145 0.1,0.27 0.159,0.377 0.057,0.106 0.122,0.16 0.192,0.16 0.141,0.038 0.269,0.076 0.386,0.115 0.21,0.058 0.397,0.088 0.561,0.088 0.187,0 0.386,-0.03 0.596,-0.088 C 1.66,4.488 1.788,4.45 1.929,4.412 1.999,4.256 2.08,4.102 2.174,3.947 2.337,3.637 2.419,3.386 2.419,3.192 2.419,3.134 2.442,3.033 2.489,2.888 2.536,2.743 2.595,2.583 2.665,2.409 2.735,2.235 2.793,2.07 2.84,1.916 2.887,1.76 2.91,1.654 2.91,1.596 2.91,1.499 2.957,1.252 3.05,0.856 3.144,0.459 3.249,0.039 3.366,-0.406 c 0.116,-0.446 0.222,-0.866 0.316,-1.262 0.092,-0.397 0.14,-0.644 0.14,-0.741 l 0.49,-0.812 C 4.383,-3.415 4.47,-3.686 4.575,-4.034 4.681,-4.382 4.792,-4.726 4.909,-5.064 5.025,-5.403 5.125,-5.703 5.207,-5.964 5.288,-6.225 5.329,-6.385 5.329,-6.443 5.329,-6.54 5.3,-6.675 5.242,-6.849 5.183,-7.023 5.095,-7.197 4.979,-7.372 4.861,-7.545 4.727,-7.701 4.575,-7.836 4.423,-7.971 4.254,-8.039 4.067,-8.039 H 3.822 c -0.117,0.058 -0.269,0.14 -0.456,0.247 -0.187,0.106 -0.38,0.227 -0.578,0.362 -0.2,0.136 -0.375,0.257 -0.526,0.363 C 2.109,-6.96 1.999,-6.878 1.929,-6.82 1.858,-6.627 1.776,-6.453 1.683,-6.298 1.519,-5.988 1.437,-5.766 1.437,-5.63 1.368,-5.417 1.28,-5.064 1.175,-4.571 1.069,-4.078 0.964,-3.555 0.859,-3.004 0.754,-2.452 0.66,-1.93 0.579,-1.437 0.497,-0.943 0.456,-0.6 0.456,-0.406 Z m -1.454,11.031 c 0,0.406 0.053,0.744 0.158,1.016 0.105,0.27 0.461,0.406 1.069,0.406 1.215,0 2.127,-0.31 2.735,-0.929 0.607,-0.619 0.911,-1.383 0.911,-2.293 V 8.825 C 3.419,8.728 3.285,8.637 3.016,8.549 2.747,8.462 2.554,8.419 2.438,8.419 2.297,8.438 2.168,8.477 2.052,8.535 1.794,8.651 1.596,8.748 1.456,8.825 1.339,8.883 1.146,8.989 0.877,9.145 0.608,9.299 0.322,9.464 0.019,9.638 c -0.305,0.174 -0.597,0.338 -0.877,0.493 -0.28,0.155 -0.479,0.262 -0.596,0.32 z" /></g><g
           transform="translate(298.2627,364.2319)"
           id="g204"><path
             id="path206"
             style="fill:#373535;fill-opacity:1;fill-rule:nonzero;stroke:none"
             d="m 0,0 v 0.407 0.464 l -0.526,0.9 C -0.596,1.983 -0.643,2.336 -0.667,2.83 -0.69,3.323 -0.76,3.816 -0.876,4.31 -0.994,4.803 -1.181,5.239 -1.437,5.616 -1.695,5.993 -2.092,6.182 -2.629,6.182 -3.144,6.182 -3.646,6.133 -4.137,6.037 -4.628,5.94 -5.119,5.838 -5.609,5.732 -6.101,5.625 -6.591,5.524 -7.082,5.427 -7.573,5.33 -8.076,5.282 -8.59,5.282 c -0.537,0 -0.976,0.145 -1.314,0.435 -0.34,0.291 -0.509,0.658 -0.509,1.103 0,0.348 0.123,0.615 0.369,0.799 0.245,0.183 0.537,0.323 0.876,0.42 0.338,0.097 0.684,0.165 1.034,0.203 0.351,0.039 0.631,0.077 0.842,0.116 0.187,0.059 0.502,0.126 0.946,0.204 0.444,0.077 0.906,0.159 1.385,0.246 0.479,0.088 0.94,0.17 1.385,0.247 0.444,0.077 0.759,0.145 0.947,0.203 0.186,0 0.32,0.082 0.402,0.247 0.082,0.164 0.135,0.352 0.158,0.566 0.024,0.213 0.029,0.416 0.018,0.609 -0.012,0.194 -0.018,0.32 -0.018,0.378 v 1.305 c 0,0.058 -0.029,0.218 -0.087,0.479 -0.059,0.262 -0.123,0.547 -0.193,0.857 -0.07,0.309 -0.135,0.59 -0.193,0.841 -0.059,0.252 -0.087,0.406 -0.087,0.464 0,0.445 0.21,0.784 0.63,1.017 0.421,0.231 0.83,0.348 1.228,0.348 0.513,0 0.888,-0.098 1.122,-0.291 0.233,-0.193 0.391,-0.445 0.473,-0.754 0.081,-0.31 0.122,-0.649 0.122,-1.016 0,-0.368 0.035,-0.716 0.106,-1.045 l 0.49,-0.9 c 0,-0.057 0.029,-0.184 0.088,-0.377 0.058,-0.194 0.117,-0.411 0.175,-0.653 0.058,-0.242 0.117,-0.474 0.175,-0.696 0.059,-0.223 0.088,-0.392 0.088,-0.508 h 0.281 c 0.584,0 1.151,0.048 1.7,0.145 0.549,0.097 1.098,0.203 1.647,0.319 0.55,0.116 1.111,0.222 1.684,0.32 0.572,0.096 1.15,0.145 1.735,0.145 0.21,0 0.474,0.004 0.789,0.014 0.316,0.01 0.631,-0.01 0.947,-0.058 0.315,-0.049 0.584,-0.136 0.806,-0.261 0.222,-0.126 0.333,-0.334 0.333,-0.624 0,-0.484 -0.158,-0.837 -0.473,-1.06 C 11.201,8.847 10.821,8.692 10.377,8.605 9.933,8.518 9.472,8.47 8.992,8.46 8.513,8.45 8.11,8.417 7.783,8.358 7.596,8.319 7.28,8.237 6.836,8.112 6.392,7.986 5.931,7.855 5.452,7.72 4.972,7.584 4.51,7.454 4.067,7.328 3.623,7.202 3.307,7.11 3.12,7.053 3.05,6.995 2.956,6.902 2.84,6.777 2.722,6.651 2.605,6.52 2.489,6.385 2.372,6.25 2.272,6.119 2.191,5.993 2.109,5.867 2.068,5.775 2.068,5.717 V 5.514 5.282 C 2.068,5.224 2.097,5.137 2.156,5.021 2.214,4.905 2.272,4.774 2.331,4.629 2.389,4.484 2.448,4.349 2.506,4.223 2.564,4.097 2.594,4.005 2.594,3.947 2.594,3.831 2.635,3.56 2.717,3.135 2.798,2.709 2.897,2.25 3.015,1.756 3.131,1.263 3.248,0.798 3.366,0.363 3.482,-0.072 3.564,-0.348 3.611,-0.464 3.751,-0.793 3.967,-1.122 4.259,-1.451 4.551,-1.78 4.843,-2.104 5.136,-2.423 5.428,-2.742 5.685,-3.052 5.907,-3.352 6.129,-3.652 6.24,-3.947 6.24,-4.237 6.24,-4.392 6.234,-4.561 6.223,-4.745 6.211,-4.929 6.17,-5.098 6.101,-5.253 6.03,-5.408 5.925,-5.534 5.784,-5.63 5.645,-5.727 5.445,-5.775 5.188,-5.775 c -0.654,0 -1.239,0.15 -1.752,0.45 -0.515,0.3 -0.982,0.667 -1.403,1.102 C 1.612,-3.787 1.232,-3.308 0.894,-2.786 0.555,-2.264 0.257,-1.79 0,-1.364 l -0.526,0.465 z" /></g><g
           transform="translate(298.2627,364.2319)"
           id="g208"><path
             id="path210"
             style="fill:none;stroke:#373535;stroke-width:0.5;stroke-linecap:butt;stroke-linejoin:miter;stroke-miterlimit:10;stroke-dasharray:none;stroke-opacity:1"
             d="m 0,0 v 0.407 0.464 l -0.526,0.9 C -0.596,1.983 -0.643,2.336 -0.667,2.83 -0.69,3.323 -0.76,3.816 -0.876,4.31 -0.994,4.803 -1.181,5.239 -1.437,5.616 -1.695,5.993 -2.092,6.182 -2.629,6.182 -3.144,6.182 -3.646,6.133 -4.137,6.037 -4.628,5.94 -5.119,5.838 -5.609,5.732 -6.101,5.625 -6.591,5.524 -7.082,5.427 -7.573,5.33 -8.076,5.282 -8.59,5.282 c -0.537,0 -0.976,0.145 -1.314,0.435 -0.34,0.291 -0.509,0.658 -0.509,1.103 0,0.348 0.123,0.615 0.369,0.799 0.245,0.183 0.537,0.323 0.876,0.42 0.338,0.097 0.684,0.165 1.034,0.203 0.351,0.039 0.631,0.077 0.842,0.116 0.187,0.059 0.502,0.126 0.946,0.204 0.444,0.077 0.906,0.159 1.385,0.246 0.479,0.088 0.94,0.17 1.385,0.247 0.444,0.077 0.759,0.145 0.947,0.203 0.186,0 0.32,0.082 0.402,0.247 0.082,0.164 0.135,0.352 0.158,0.566 0.024,0.213 0.029,0.416 0.018,0.609 -0.012,0.194 -0.018,0.32 -0.018,0.378 v 1.305 c 0,0.058 -0.029,0.218 -0.087,0.479 -0.059,0.262 -0.123,0.547 -0.193,0.857 -0.07,0.309 -0.135,0.59 -0.193,0.841 -0.059,0.252 -0.087,0.406 -0.087,0.464 0,0.445 0.21,0.784 0.63,1.017 0.421,0.231 0.83,0.348 1.228,0.348 0.513,0 0.888,-0.098 1.122,-0.291 0.233,-0.193 0.391,-0.445 0.473,-0.754 0.081,-0.31 0.122,-0.649 0.122,-1.016 0,-0.368 0.035,-0.716 0.106,-1.045 l 0.49,-0.9 c 0,-0.057 0.029,-0.184 0.088,-0.377 0.058,-0.194 0.117,-0.411 0.175,-0.653 0.058,-0.242 0.117,-0.474 0.175,-0.696 0.059,-0.223 0.088,-0.392 0.088,-0.508 h 0.281 c 0.584,0 1.151,0.048 1.7,0.145 0.549,0.097 1.098,0.203 1.647,0.319 0.55,0.116 1.111,0.222 1.684,0.32 0.572,0.096 1.15,0.145 1.735,0.145 0.21,0 0.474,0.004 0.789,0.014 0.316,0.01 0.631,-0.01 0.947,-0.058 0.315,-0.049 0.584,-0.136 0.806,-0.261 0.222,-0.126 0.333,-0.334 0.333,-0.624 0,-0.484 -0.158,-0.837 -0.473,-1.06 C 11.201,8.847 10.821,8.692 10.377,8.605 9.933,8.518 9.472,8.47 8.992,8.46 8.513,8.45 8.11,8.417 7.783,8.358 7.596,8.319 7.28,8.237 6.836,8.112 6.392,7.986 5.931,7.855 5.452,7.72 4.972,7.584 4.51,7.454 4.067,7.328 3.623,7.202 3.307,7.11 3.12,7.053 3.05,6.995 2.956,6.902 2.84,6.777 2.722,6.651 2.605,6.52 2.489,6.385 2.372,6.25 2.272,6.119 2.191,5.993 2.109,5.867 2.068,5.775 2.068,5.717 V 5.514 5.282 C 2.068,5.224 2.097,5.137 2.156,5.021 2.214,4.905 2.272,4.774 2.331,4.629 2.389,4.484 2.448,4.349 2.506,4.223 2.564,4.097 2.594,4.005 2.594,3.947 2.594,3.831 2.635,3.56 2.717,3.135 2.798,2.709 2.897,2.25 3.015,1.756 3.131,1.263 3.248,0.798 3.366,0.363 3.482,-0.072 3.564,-0.348 3.611,-0.464 3.751,-0.793 3.967,-1.122 4.259,-1.451 4.551,-1.78 4.843,-2.104 5.136,-2.423 5.428,-2.742 5.685,-3.052 5.907,-3.352 6.129,-3.652 6.24,-3.947 6.24,-4.237 6.24,-4.392 6.234,-4.561 6.223,-4.745 6.211,-4.929 6.17,-5.098 6.101,-5.253 6.03,-5.408 5.925,-5.534 5.784,-5.63 5.645,-5.727 5.445,-5.775 5.188,-5.775 c -0.654,0 -1.239,0.15 -1.752,0.45 -0.515,0.3 -0.982,0.667 -1.403,1.102 C 1.612,-3.787 1.232,-3.308 0.894,-2.786 0.555,-2.264 0.257,-1.79 0,-1.364 l -0.526,0.465 z" /></g><g
           transform="translate(321.5068,364.2319)"
           id="g212"><path
             id="path214"
             style="fill:#373535;fill-opacity:1;fill-rule:nonzero;stroke:none"
             d="m 0,0 v 0.407 0.464 l -0.526,0.9 C -0.596,1.983 -0.644,2.336 -0.666,2.83 -0.689,3.323 -0.76,3.816 -0.877,4.31 -0.994,4.803 -1.181,5.239 -1.437,5.616 -1.695,5.993 -2.092,6.182 -2.63,6.182 -3.144,6.182 -3.646,6.133 -4.137,6.037 -4.628,5.94 -5.119,5.838 -5.609,5.732 -6.101,5.625 -6.591,5.524 -7.082,5.427 -7.573,5.33 -8.076,5.282 -8.59,5.282 c -0.538,0 -0.975,0.145 -1.314,0.435 -0.339,0.291 -0.509,0.658 -0.509,1.103 0,0.348 0.123,0.615 0.368,0.799 0.246,0.183 0.538,0.323 0.877,0.42 0.339,0.097 0.684,0.165 1.034,0.203 0.351,0.039 0.631,0.077 0.842,0.116 0.187,0.059 0.502,0.126 0.946,0.204 0.444,0.077 0.906,0.159 1.385,0.246 0.479,0.088 0.94,0.17 1.385,0.247 0.443,0.077 0.759,0.145 0.946,0.203 0.188,0 0.321,0.082 0.403,0.247 0.082,0.164 0.135,0.352 0.159,0.566 0.022,0.213 0.028,0.416 0.017,0.609 -0.012,0.194 -0.017,0.32 -0.017,0.378 v 1.305 c 0,0.058 -0.031,0.218 -0.088,0.479 -0.059,0.262 -0.123,0.547 -0.193,0.857 -0.07,0.309 -0.134,0.59 -0.193,0.841 -0.059,0.252 -0.088,0.406 -0.088,0.464 0,0.445 0.211,0.784 0.632,1.017 0.42,0.231 0.829,0.348 1.227,0.348 0.513,0 0.887,-0.098 1.122,-0.291 0.233,-0.193 0.39,-0.445 0.472,-0.754 0.082,-0.31 0.123,-0.649 0.123,-1.016 0,-0.368 0.035,-0.716 0.106,-1.045 l 0.49,-0.9 c 0,-0.057 0.029,-0.184 0.088,-0.377 0.058,-0.194 0.117,-0.411 0.176,-0.653 0.057,-0.242 0.116,-0.474 0.174,-0.696 0.059,-0.223 0.088,-0.392 0.088,-0.508 h 0.281 c 0.584,0 1.151,0.048 1.7,0.145 0.549,0.097 1.098,0.203 1.648,0.319 0.549,0.116 1.11,0.222 1.683,0.32 0.572,0.096 1.15,0.145 1.735,0.145 0.21,0 0.474,0.004 0.789,0.014 0.316,0.01 0.631,-0.01 0.947,-0.058 0.315,-0.049 0.584,-0.136 0.806,-0.261 0.222,-0.126 0.333,-0.334 0.333,-0.624 0,-0.484 -0.158,-0.837 -0.473,-1.06 C 11.201,8.847 10.821,8.692 10.377,8.605 9.933,8.518 9.472,8.47 8.992,8.46 8.513,8.45 8.11,8.417 7.783,8.358 7.596,8.319 7.28,8.237 6.836,8.112 6.392,7.986 5.931,7.855 5.451,7.72 4.973,7.584 4.511,7.454 4.066,7.328 3.622,7.202 3.307,7.11 3.12,7.053 3.05,6.995 2.956,6.902 2.84,6.777 2.723,6.651 2.605,6.52 2.489,6.385 2.372,6.25 2.272,6.119 2.191,5.993 2.108,5.867 2.068,5.775 2.068,5.717 V 5.514 5.282 C 2.068,5.224 2.098,5.137 2.156,5.021 2.214,4.905 2.272,4.774 2.331,4.629 2.39,4.484 2.448,4.349 2.507,4.223 2.564,4.097 2.594,4.005 2.594,3.947 2.594,3.831 2.635,3.56 2.717,3.135 2.799,2.709 2.897,2.25 3.015,1.756 3.132,1.263 3.248,0.798 3.365,0.363 3.482,-0.072 3.563,-0.348 3.611,-0.464 3.751,-0.793 3.967,-1.122 4.26,-1.451 4.552,-1.78 4.844,-2.104 5.136,-2.423 5.428,-2.742 5.685,-3.052 5.907,-3.352 6.129,-3.652 6.24,-3.947 6.24,-4.237 6.24,-4.392 6.234,-4.561 6.223,-4.745 6.211,-4.929 6.17,-5.098 6.101,-5.253 6.03,-5.408 5.925,-5.534 5.784,-5.63 5.645,-5.727 5.445,-5.775 5.188,-5.775 c -0.654,0 -1.239,0.15 -1.752,0.45 -0.515,0.3 -0.982,0.667 -1.403,1.102 C 1.612,-3.787 1.232,-3.308 0.894,-2.786 0.555,-2.264 0.257,-1.79 0,-1.364 l -0.526,0.465 z" /></g><g
           transform="translate(321.5068,364.2319)"
           id="g216"><path
             id="path218"
             style="fill:none;stroke:#373535;stroke-width:0.5;stroke-linecap:butt;stroke-linejoin:miter;stroke-miterlimit:10;stroke-dasharray:none;stroke-opacity:1"
             d="m 0,0 v 0.407 0.464 l -0.526,0.9 C -0.596,1.983 -0.644,2.336 -0.666,2.83 -0.689,3.323 -0.76,3.816 -0.877,4.31 -0.994,4.803 -1.181,5.239 -1.437,5.616 -1.695,5.993 -2.092,6.182 -2.63,6.182 -3.144,6.182 -3.646,6.133 -4.137,6.037 -4.628,5.94 -5.119,5.838 -5.609,5.732 -6.101,5.625 -6.591,5.524 -7.082,5.427 -7.573,5.33 -8.076,5.282 -8.59,5.282 c -0.538,0 -0.975,0.145 -1.314,0.435 -0.339,0.291 -0.509,0.658 -0.509,1.103 0,0.348 0.123,0.615 0.368,0.799 0.246,0.183 0.538,0.323 0.877,0.42 0.339,0.097 0.684,0.165 1.034,0.203 0.351,0.039 0.631,0.077 0.842,0.116 0.187,0.059 0.502,0.126 0.946,0.204 0.444,0.077 0.906,0.159 1.385,0.246 0.479,0.088 0.94,0.17 1.385,0.247 0.443,0.077 0.759,0.145 0.946,0.203 0.188,0 0.321,0.082 0.403,0.247 0.082,0.164 0.135,0.352 0.159,0.566 0.022,0.213 0.028,0.416 0.017,0.609 -0.012,0.194 -0.017,0.32 -0.017,0.378 v 1.305 c 0,0.058 -0.031,0.218 -0.088,0.479 -0.059,0.262 -0.123,0.547 -0.193,0.857 -0.07,0.309 -0.134,0.59 -0.193,0.841 -0.059,0.252 -0.088,0.406 -0.088,0.464 0,0.445 0.211,0.784 0.632,1.017 0.42,0.231 0.829,0.348 1.227,0.348 0.513,0 0.887,-0.098 1.122,-0.291 0.233,-0.193 0.39,-0.445 0.472,-0.754 0.082,-0.31 0.123,-0.649 0.123,-1.016 0,-0.368 0.035,-0.716 0.106,-1.045 l 0.49,-0.9 c 0,-0.057 0.029,-0.184 0.088,-0.377 0.058,-0.194 0.117,-0.411 0.176,-0.653 0.057,-0.242 0.116,-0.474 0.174,-0.696 0.059,-0.223 0.088,-0.392 0.088,-0.508 h 0.281 c 0.584,0 1.151,0.048 1.7,0.145 0.549,0.097 1.098,0.203 1.648,0.319 0.549,0.116 1.11,0.222 1.683,0.32 0.572,0.096 1.15,0.145 1.735,0.145 0.21,0 0.474,0.004 0.789,0.014 0.316,0.01 0.631,-0.01 0.947,-0.058 0.315,-0.049 0.584,-0.136 0.806,-0.261 0.222,-0.126 0.333,-0.334 0.333,-0.624 0,-0.484 -0.158,-0.837 -0.473,-1.06 C 11.201,8.847 10.821,8.692 10.377,8.605 9.933,8.518 9.472,8.47 8.992,8.46 8.513,8.45 8.11,8.417 7.783,8.358 7.596,8.319 7.28,8.237 6.836,8.112 6.392,7.986 5.931,7.855 5.451,7.72 4.973,7.584 4.511,7.454 4.066,7.328 3.622,7.202 3.307,7.11 3.12,7.053 3.05,6.995 2.956,6.902 2.84,6.777 2.723,6.651 2.605,6.52 2.489,6.385 2.372,6.25 2.272,6.119 2.191,5.993 2.108,5.867 2.068,5.775 2.068,5.717 V 5.514 5.282 C 2.068,5.224 2.098,5.137 2.156,5.021 2.214,4.905 2.272,4.774 2.331,4.629 2.39,4.484 2.448,4.349 2.507,4.223 2.564,4.097 2.594,4.005 2.594,3.947 2.594,3.831 2.635,3.56 2.717,3.135 2.799,2.709 2.897,2.25 3.015,1.756 3.132,1.263 3.248,0.798 3.365,0.363 3.482,-0.072 3.563,-0.348 3.611,-0.464 3.751,-0.793 3.967,-1.122 4.26,-1.451 4.552,-1.78 4.844,-2.104 5.136,-2.423 5.428,-2.742 5.685,-3.052 5.907,-3.352 6.129,-3.652 6.24,-3.947 6.24,-4.237 6.24,-4.392 6.234,-4.561 6.223,-4.745 6.211,-4.929 6.17,-5.098 6.101,-5.253 6.03,-5.408 5.925,-5.534 5.784,-5.63 5.645,-5.727 5.445,-5.775 5.188,-5.775 c -0.654,0 -1.239,0.15 -1.752,0.45 -0.515,0.3 -0.982,0.667 -1.403,1.102 C 1.612,-3.787 1.232,-3.308 0.894,-2.786 0.555,-2.264 0.257,-1.79 0,-1.364 l -0.526,0.465 z" /></g><g
           transform="translate(334.3037,370.0366)"
           id="g220"><path
             id="path222"
             style="fill:#373535;fill-opacity:1;fill-rule:nonzero;stroke:none"
             d="m 0,0 c 0.069,0.058 0.187,0.116 0.351,0.174 0.163,0.058 0.333,0.111 0.507,0.159 0.176,0.049 0.351,0.083 0.527,0.102 0.175,0.019 0.298,0.029 0.368,0.029 0.631,0 1.092,-0.189 1.385,-0.566 0.292,-0.377 0.519,-0.846 0.683,-1.407 0.163,-0.562 0.327,-1.171 0.491,-1.828 0.163,-0.659 0.42,-1.268 0.771,-1.829 0.351,-0.562 0.847,-1.03 1.49,-1.408 0.643,-0.377 1.548,-0.566 2.717,-0.566 0.584,0 1.11,0.078 1.578,0.233 0.467,0.155 1.004,0.232 1.612,0.232 0.444,0 0.819,-0.02 1.123,-0.058 0.303,-0.039 0.607,-0.174 0.911,-0.407 0.211,-0.173 0.526,-0.435 0.947,-0.783 0.42,-0.348 0.852,-0.702 1.297,-1.059 0.443,-0.359 0.842,-0.683 1.192,-0.973 0.351,-0.29 0.561,-0.464 0.631,-0.522 0.07,-0.058 0.216,-0.281 0.438,-0.668 0.222,-0.387 0.461,-0.802 0.718,-1.248 0.258,-0.444 0.497,-0.856 0.719,-1.233 0.223,-0.377 0.368,-0.595 0.439,-0.653 0.093,-0.116 0.268,-0.295 0.526,-0.537 0.257,-0.242 0.555,-0.508 0.893,-0.798 0.339,-0.29 0.702,-0.59 1.087,-0.9 0.386,-0.309 0.754,-0.604 1.105,-0.885 0.35,-0.28 0.672,-0.527 0.964,-0.74 0.292,-0.213 0.509,-0.358 0.648,-0.435 0,-0.058 0.029,-0.155 0.088,-0.29 0.059,-0.136 0.123,-0.281 0.193,-0.436 0.07,-0.154 0.134,-0.3 0.193,-0.435 0.057,-0.135 0.088,-0.232 0.088,-0.29 0.07,-0.174 0.262,-0.329 0.578,-0.465 0.315,-0.135 0.631,-0.265 0.946,-0.391 0.316,-0.126 0.567,-0.271 0.754,-0.436 0.188,-0.164 0.211,-0.363 0.07,-0.595 0,-0.058 -0.076,-0.154 -0.227,-0.29 -0.153,-0.135 -0.328,-0.276 -0.527,-0.421 -0.198,-0.145 -0.397,-0.285 -0.595,-0.42 -0.2,-0.136 -0.333,-0.233 -0.404,-0.29 h -0.841 c -0.445,0 -0.788,0.019 -1.035,0.057 -0.245,0.039 -0.578,0.174 -0.999,0.407 -0.139,0.116 -0.297,0.271 -0.472,0.464 -0.176,0.194 -0.346,0.387 -0.509,0.58 -0.164,0.194 -0.315,0.368 -0.456,0.523 -0.14,0.155 -0.245,0.261 -0.316,0.319 -0.724,0.852 -1.496,1.65 -2.313,2.395 -0.818,0.744 -1.59,1.533 -2.314,2.365 -0.234,0.309 -0.584,0.769 -1.052,1.378 -0.468,0.61 -0.982,1.229 -1.542,1.858 -0.562,0.629 -1.134,1.19 -1.718,1.683 -0.585,0.493 -1.087,0.769 -1.508,0.827 H 7.572 C 6.123,-10.303 4.937,-9.834 4.014,-9.069 3.09,-8.305 2.36,-7.411 1.822,-6.385 1.284,-5.36 0.882,-4.276 0.613,-3.134 0.344,-1.993 0.14,-0.948 0,0" /></g><g
           transform="translate(334.3037,370.0366)"
           id="g224"><path
             id="path226"
             style="fill:none;stroke:#373535;stroke-width:0.5;stroke-linecap:butt;stroke-linejoin:miter;stroke-miterlimit:10;stroke-dasharray:none;stroke-opacity:1"
             d="m 0,0 c 0.069,0.058 0.187,0.116 0.351,0.174 0.163,0.058 0.333,0.111 0.507,0.159 0.176,0.049 0.351,0.083 0.527,0.102 0.175,0.019 0.298,0.029 0.368,0.029 0.631,0 1.092,-0.189 1.385,-0.566 0.292,-0.377 0.519,-0.846 0.683,-1.407 0.163,-0.562 0.327,-1.171 0.491,-1.828 0.163,-0.659 0.42,-1.268 0.771,-1.829 0.351,-0.562 0.847,-1.03 1.49,-1.408 0.643,-0.377 1.548,-0.566 2.717,-0.566 0.584,0 1.11,0.078 1.578,0.233 0.467,0.155 1.004,0.232 1.612,0.232 0.444,0 0.819,-0.02 1.123,-0.058 0.303,-0.039 0.607,-0.174 0.911,-0.407 0.211,-0.173 0.526,-0.435 0.947,-0.783 0.42,-0.348 0.852,-0.702 1.297,-1.059 0.443,-0.359 0.842,-0.683 1.192,-0.973 0.351,-0.29 0.561,-0.464 0.631,-0.522 0.07,-0.058 0.216,-0.281 0.438,-0.668 0.222,-0.387 0.461,-0.802 0.718,-1.248 0.258,-0.444 0.497,-0.856 0.719,-1.233 0.223,-0.377 0.368,-0.595 0.439,-0.653 0.093,-0.116 0.268,-0.295 0.526,-0.537 0.257,-0.242 0.555,-0.508 0.893,-0.798 0.339,-0.29 0.702,-0.59 1.087,-0.9 0.386,-0.309 0.754,-0.604 1.105,-0.885 0.35,-0.28 0.672,-0.527 0.964,-0.74 0.292,-0.213 0.509,-0.358 0.648,-0.435 0,-0.058 0.029,-0.155 0.088,-0.29 0.059,-0.136 0.123,-0.281 0.193,-0.436 0.07,-0.154 0.134,-0.3 0.193,-0.435 0.057,-0.135 0.088,-0.232 0.088,-0.29 0.07,-0.174 0.262,-0.329 0.578,-0.465 0.315,-0.135 0.631,-0.265 0.946,-0.391 0.316,-0.126 0.567,-0.271 0.754,-0.436 0.188,-0.164 0.211,-0.363 0.07,-0.595 0,-0.058 -0.076,-0.154 -0.227,-0.29 -0.153,-0.135 -0.328,-0.276 -0.527,-0.421 -0.198,-0.145 -0.397,-0.285 -0.595,-0.42 -0.2,-0.136 -0.333,-0.233 -0.404,-0.29 h -0.841 c -0.445,0 -0.788,0.019 -1.035,0.057 -0.245,0.039 -0.578,0.174 -0.999,0.407 -0.139,0.116 -0.297,0.271 -0.472,0.464 -0.176,0.194 -0.346,0.387 -0.509,0.58 -0.164,0.194 -0.315,0.368 -0.456,0.523 -0.14,0.155 -0.245,0.261 -0.316,0.319 -0.724,0.852 -1.496,1.65 -2.313,2.395 -0.818,0.744 -1.59,1.533 -2.314,2.365 -0.234,0.309 -0.584,0.769 -1.052,1.378 -0.468,0.61 -0.982,1.229 -1.542,1.858 -0.562,0.629 -1.134,1.19 -1.718,1.683 -0.585,0.493 -1.087,0.769 -1.508,0.827 H 7.572 C 6.123,-10.303 4.937,-9.834 4.014,-9.069 3.09,-8.305 2.36,-7.411 1.822,-6.385 1.284,-5.36 0.882,-4.276 0.613,-3.134 0.344,-1.993 0.14,-0.948 0,0 Z" /></g><g
           transform="translate(404.374,362.8681)"
           id="g228"><path
             id="path230"
             style="fill:#373535;fill-opacity:1;fill-rule:nonzero;stroke:none"
             d="m 0,0 c 0.257,0.097 0.408,0.208 0.456,0.333 0.046,0.126 0.069,0.295 0.069,0.509 0,0.677 -0.058,1.402 -0.174,2.176 -0.118,0.774 -0.252,1.563 -0.404,2.365 -0.152,0.803 -0.315,1.606 -0.491,2.409 -0.175,0.803 -0.333,1.572 -0.473,2.308 0,0.058 -0.023,0.212 -0.07,0.464 -0.047,0.251 -0.105,0.522 -0.176,0.812 -0.069,0.291 -0.128,0.557 -0.174,0.799 -0.047,0.242 -0.071,0.391 -0.071,0.45 0,0.058 0.041,0.149 0.123,0.275 0.081,0.126 0.181,0.251 0.298,0.377 0.116,0.126 0.228,0.252 0.333,0.378 0.106,0.125 0.192,0.218 0.263,0.276 h -1.017 c -0.888,0 -1.759,-0.044 -2.611,-0.131 -0.854,-0.087 -1.701,-0.184 -2.542,-0.29 -0.842,-0.107 -1.672,-0.203 -2.489,-0.291 -0.819,-0.087 -1.637,-0.13 -2.454,-0.13 -0.515,0 -0.901,0.125 -1.158,0.377 -0.258,0.251 -0.385,0.541 -0.385,0.871 0,0.309 0.076,0.546 0.228,0.711 0.151,0.164 0.414,0.352 0.788,0.566 0.07,0 0.193,0.019 0.368,0.058 0.176,0.038 0.368,0.087 0.579,0.145 0.21,0.058 0.414,0.106 0.614,0.145 0.198,0.038 0.356,0.058 0.473,0.058 3.832,0.522 7.637,0.933 11.411,1.233 3.775,0.3 7.649,0.45 11.623,0.45 h 3.786 c 0.117,0 0.321,-0.014 0.614,-0.043 0.292,-0.029 0.596,-0.063 0.911,-0.102 0.315,-0.039 0.613,-0.082 0.894,-0.13 0.281,-0.049 0.479,-0.093 0.596,-0.131 0.257,0 0.408,-0.083 0.456,-0.247 0.046,-0.164 0.07,-0.304 0.07,-0.421 0,-0.154 -0.059,-0.261 -0.175,-0.319 -0.117,-0.058 -0.252,-0.102 -0.403,-0.13 -0.153,-0.03 -0.316,-0.049 -0.492,-0.058 -0.174,-0.01 -0.333,-0.044 -0.472,-0.102 -0.048,0 -0.17,-0.043 -0.368,-0.13 -0.2,-0.088 -0.41,-0.185 -0.631,-0.291 -0.223,-0.106 -0.427,-0.203 -0.615,-0.29 -0.187,-0.087 -0.315,-0.131 -0.385,-0.131 -0.07,0 -0.199,0.025 -0.386,0.073 -0.187,0.048 -0.398,0.097 -0.631,0.145 -0.233,0.048 -0.444,0.097 -0.631,0.145 -0.187,0.048 -0.315,0.073 -0.386,0.073 -1.004,0 -2.039,-0.049 -3.102,-0.145 C 10.523,15.372 9.454,15.26 8.379,15.135 7.304,15.009 6.234,14.874 5.171,14.729 4.107,14.583 3.062,14.453 2.033,14.337 1.775,14.221 1.63,14.138 1.595,14.09 1.56,14.042 1.542,13.911 1.542,13.698 V 13.495 C 1.729,12.76 1.91,12.106 2.086,11.536 2.261,10.965 2.401,10.419 2.507,9.896 2.611,9.374 2.676,8.827 2.699,8.257 2.723,7.686 2.676,7.033 2.56,6.298 2.933,6.201 3.108,6.022 3.085,5.761 3.062,5.5 3.05,5.262 3.05,5.05 3.12,4.74 3.226,4.3 3.365,3.729 3.506,3.158 3.651,2.583 3.804,2.002 3.955,1.422 4.102,0.899 4.242,0.435 c 0.14,-0.464 0.245,-0.754 0.316,-0.871 0,-0.058 0.081,-0.212 0.245,-0.464 0.163,-0.251 0.339,-0.522 0.526,-0.812 0.187,-0.29 0.362,-0.562 0.525,-0.813 0.164,-0.252 0.247,-0.406 0.247,-0.464 v -0.407 c 0,-0.329 -0.159,-0.624 -0.474,-0.885 -0.315,-0.261 -0.672,-0.391 -1.069,-0.391 -0.492,0 -0.854,0.047 -1.087,0.145 -0.235,0.096 -0.415,0.241 -0.543,0.435 -0.129,0.193 -0.246,0.421 -0.351,0.682 -0.105,0.261 -0.287,0.556 -0.544,0.885 l -0.491,0.348 c -0.117,0.097 -0.233,0.189 -0.351,0.276 -0.117,0.087 -0.174,0.16 -0.174,0.218 v 0.841 c 0,0.039 -0.041,0.107 -0.123,0.203 C 0.812,-0.542 0.719,-0.445 0.613,-0.348 0.508,-0.252 0.397,-0.169 0.28,-0.102 0.163,-0.034 0.07,0 0,0" /></g><g
           transform="translate(404.374,362.8681)"
           id="g232"><path
             id="path234"
             style="fill:none;stroke:#373535;stroke-width:0.5;stroke-linecap:butt;stroke-linejoin:miter;stroke-miterlimit:10;stroke-dasharray:none;stroke-opacity:1"
             d="m 0,0 c 0.257,0.097 0.408,0.208 0.456,0.333 0.046,0.126 0.069,0.295 0.069,0.509 0,0.677 -0.058,1.402 -0.174,2.176 -0.118,0.774 -0.252,1.563 -0.404,2.365 -0.152,0.803 -0.315,1.606 -0.491,2.409 -0.175,0.803 -0.333,1.572 -0.473,2.308 0,0.058 -0.023,0.212 -0.07,0.464 -0.047,0.251 -0.105,0.522 -0.176,0.812 -0.069,0.291 -0.128,0.557 -0.174,0.799 -0.047,0.242 -0.071,0.391 -0.071,0.45 0,0.058 0.041,0.149 0.123,0.275 0.081,0.126 0.181,0.251 0.298,0.377 0.116,0.126 0.228,0.252 0.333,0.378 0.106,0.125 0.192,0.218 0.263,0.276 h -1.017 c -0.888,0 -1.759,-0.044 -2.611,-0.131 -0.854,-0.087 -1.701,-0.184 -2.542,-0.29 -0.842,-0.107 -1.672,-0.203 -2.489,-0.291 -0.819,-0.087 -1.637,-0.13 -2.454,-0.13 -0.515,0 -0.901,0.125 -1.158,0.377 -0.258,0.251 -0.385,0.541 -0.385,0.871 0,0.309 0.076,0.546 0.228,0.711 0.151,0.164 0.414,0.352 0.788,0.566 0.07,0 0.193,0.019 0.368,0.058 0.176,0.038 0.368,0.087 0.579,0.145 0.21,0.058 0.414,0.106 0.614,0.145 0.198,0.038 0.356,0.058 0.473,0.058 3.832,0.522 7.637,0.933 11.411,1.233 3.775,0.3 7.649,0.45 11.623,0.45 h 3.786 c 0.117,0 0.321,-0.014 0.614,-0.043 0.292,-0.029 0.596,-0.063 0.911,-0.102 0.315,-0.039 0.613,-0.082 0.894,-0.13 0.281,-0.049 0.479,-0.093 0.596,-0.131 0.257,0 0.408,-0.083 0.456,-0.247 0.046,-0.164 0.07,-0.304 0.07,-0.421 0,-0.154 -0.059,-0.261 -0.175,-0.319 -0.117,-0.058 -0.252,-0.102 -0.403,-0.13 -0.153,-0.03 -0.316,-0.049 -0.492,-0.058 -0.174,-0.01 -0.333,-0.044 -0.472,-0.102 -0.048,0 -0.17,-0.043 -0.368,-0.13 -0.2,-0.088 -0.41,-0.185 -0.631,-0.291 -0.223,-0.106 -0.427,-0.203 -0.615,-0.29 -0.187,-0.087 -0.315,-0.131 -0.385,-0.131 -0.07,0 -0.199,0.025 -0.386,0.073 -0.187,0.048 -0.398,0.097 -0.631,0.145 -0.233,0.048 -0.444,0.097 -0.631,0.145 -0.187,0.048 -0.315,0.073 -0.386,0.073 -1.004,0 -2.039,-0.049 -3.102,-0.145 C 10.523,15.372 9.454,15.26 8.379,15.135 7.304,15.009 6.234,14.874 5.171,14.729 4.107,14.583 3.062,14.453 2.033,14.337 1.775,14.221 1.63,14.138 1.595,14.09 1.56,14.042 1.542,13.911 1.542,13.698 V 13.495 C 1.729,12.76 1.91,12.106 2.086,11.536 2.261,10.965 2.401,10.419 2.507,9.896 2.611,9.374 2.676,8.827 2.699,8.257 2.723,7.686 2.676,7.033 2.56,6.298 2.933,6.201 3.108,6.022 3.085,5.761 3.062,5.5 3.05,5.262 3.05,5.05 3.12,4.74 3.226,4.3 3.365,3.729 3.506,3.158 3.651,2.583 3.804,2.002 3.955,1.422 4.102,0.899 4.242,0.435 c 0.14,-0.464 0.245,-0.754 0.316,-0.871 0,-0.058 0.081,-0.212 0.245,-0.464 0.163,-0.251 0.339,-0.522 0.526,-0.812 0.187,-0.29 0.362,-0.562 0.525,-0.813 0.164,-0.252 0.247,-0.406 0.247,-0.464 v -0.407 c 0,-0.329 -0.159,-0.624 -0.474,-0.885 -0.315,-0.261 -0.672,-0.391 -1.069,-0.391 -0.492,0 -0.854,0.047 -1.087,0.145 -0.235,0.096 -0.415,0.241 -0.543,0.435 -0.129,0.193 -0.246,0.421 -0.351,0.682 -0.105,0.261 -0.287,0.556 -0.544,0.885 l -0.491,0.348 c -0.117,0.097 -0.233,0.189 -0.351,0.276 -0.117,0.087 -0.174,0.16 -0.174,0.218 v 0.841 c 0,0.039 -0.041,0.107 -0.123,0.203 C 0.812,-0.542 0.719,-0.445 0.613,-0.348 0.508,-0.252 0.397,-0.169 0.28,-0.102 0.163,-0.034 0.07,0 0,0 Z" /></g><g
           transform="translate(422.5801,364.0869)"
           id="g236"><path
             id="path238"
             style="fill:#373535;fill-opacity:1;fill-rule:nonzero;stroke:none"
             d="m 0,0 c 0,-0.193 0.135,-0.411 0.403,-0.653 0.269,-0.242 0.573,-0.479 0.912,-0.711 0.338,-0.232 0.666,-0.44 0.982,-0.624 0.315,-0.184 0.519,-0.304 0.613,-0.363 h 0.701 c 1.099,0 2.086,0.189 2.963,0.566 0.876,0.378 1.63,0.875 2.261,1.495 0.631,0.619 1.116,1.32 1.455,2.104 0.339,0.784 0.509,1.591 0.509,2.423 0,0.523 -0.018,1.035 -0.053,1.538 C 10.711,6.278 10.605,6.723 10.431,7.11 10.255,7.497 9.975,7.812 9.589,8.054 9.203,8.295 8.66,8.417 7.959,8.417 7.07,8.417 6.259,8.257 5.522,7.937 4.786,7.618 4.125,7.207 3.541,6.704 2.957,6.201 2.448,5.635 2.017,5.006 1.583,4.377 1.222,3.749 0.93,3.12 0.637,2.491 0.415,1.901 0.264,1.35 0.111,0.798 0.023,0.348 0,0 M 13.708,-2.351 C 12.727,-2.893 11.903,-3.386 11.236,-3.831 10.57,-4.276 9.91,-4.658 9.256,-4.977 8.602,-5.296 7.871,-5.543 7.064,-5.717 6.259,-5.891 5.225,-5.979 3.962,-5.979 c -2.688,0 -4.616,0.475 -5.784,1.423 -1.17,0.948 -1.753,2.467 -1.753,4.556 0,1.2 0.315,2.438 0.946,3.715 0.631,1.277 1.473,2.442 2.525,3.497 1.051,1.055 2.272,1.92 3.663,2.598 1.39,0.676 2.857,1.015 4.4,1.015 0.817,0 1.466,-0.092 1.945,-0.275 0.479,-0.185 0.889,-0.436 1.228,-0.755 0.338,-0.319 0.642,-0.702 0.911,-1.147 0.269,-0.445 0.579,-0.928 0.93,-1.45 0.186,-0.291 0.355,-0.537 0.507,-0.74 0.152,-0.204 0.298,-0.402 0.439,-0.596 0.14,-0.193 0.269,-0.396 0.386,-0.609 0.116,-0.213 0.245,-0.484 0.385,-0.813 0.303,-0.87 0.619,-1.77 0.947,-2.699 0.327,-0.929 0.677,-1.843 1.051,-2.742 0.374,-0.9 0.784,-1.766 1.227,-2.598 0.444,-0.832 0.935,-1.586 1.473,-2.263 0.374,-0.309 0.736,-0.678 1.087,-1.103 0.35,-0.426 0.701,-0.774 1.051,-1.045 v -0.319 c 0,-0.213 -0.099,-0.411 -0.297,-0.595 -0.2,-0.184 -0.433,-0.344 -0.702,-0.479 -0.268,-0.135 -0.549,-0.237 -0.841,-0.305 -0.292,-0.067 -0.532,-0.101 -0.719,-0.101 h -0.316 c -0.093,0 -0.233,0.014 -0.42,0.043 -0.187,0.029 -0.385,0.073 -0.596,0.131 -0.21,0.058 -0.421,0.121 -0.631,0.189 -0.21,0.068 -0.386,0.15 -0.525,0.246 -0.399,0.387 -0.726,0.856 -0.983,1.408 -0.257,0.551 -0.478,1.142 -0.666,1.77 -0.187,0.628 -0.368,1.263 -0.543,1.901 -0.176,0.639 -0.368,1.228 -0.579,1.77" /></g><g
           transform="translate(422.5801,364.0869)"
           id="g240"><path
             id="path242"
             style="fill:none;stroke:#373535;stroke-width:0.5;stroke-linecap:butt;stroke-linejoin:miter;stroke-miterlimit:10;stroke-dasharray:none;stroke-opacity:1"
             d="m 0,0 c 0,-0.193 0.135,-0.411 0.403,-0.653 0.269,-0.242 0.573,-0.479 0.912,-0.711 0.338,-0.232 0.666,-0.44 0.982,-0.624 0.315,-0.184 0.519,-0.304 0.613,-0.363 h 0.701 c 1.099,0 2.086,0.189 2.963,0.566 0.876,0.378 1.63,0.875 2.261,1.495 0.631,0.619 1.116,1.32 1.455,2.104 0.339,0.784 0.509,1.591 0.509,2.423 0,0.523 -0.018,1.035 -0.053,1.538 C 10.711,6.278 10.605,6.723 10.431,7.11 10.255,7.497 9.975,7.812 9.589,8.054 9.203,8.295 8.66,8.417 7.959,8.417 7.07,8.417 6.259,8.257 5.522,7.937 4.786,7.618 4.125,7.207 3.541,6.704 2.957,6.201 2.448,5.635 2.017,5.006 1.583,4.377 1.222,3.749 0.93,3.12 0.637,2.491 0.415,1.901 0.264,1.35 0.111,0.798 0.023,0.348 0,0 Z M 13.708,-2.351 C 12.727,-2.893 11.903,-3.386 11.236,-3.831 10.57,-4.276 9.91,-4.658 9.256,-4.977 8.602,-5.296 7.871,-5.543 7.064,-5.717 6.259,-5.891 5.225,-5.979 3.962,-5.979 c -2.688,0 -4.616,0.475 -5.784,1.423 -1.17,0.948 -1.753,2.467 -1.753,4.556 0,1.2 0.315,2.438 0.946,3.715 0.631,1.277 1.473,2.442 2.525,3.497 1.051,1.055 2.272,1.92 3.663,2.598 1.39,0.676 2.857,1.015 4.4,1.015 0.817,0 1.466,-0.092 1.945,-0.275 0.479,-0.185 0.889,-0.436 1.228,-0.755 0.338,-0.319 0.642,-0.702 0.911,-1.147 0.269,-0.445 0.579,-0.928 0.93,-1.45 0.186,-0.291 0.355,-0.537 0.507,-0.74 0.152,-0.204 0.298,-0.402 0.439,-0.596 0.14,-0.193 0.269,-0.396 0.386,-0.609 0.116,-0.213 0.245,-0.484 0.385,-0.813 0.303,-0.87 0.619,-1.77 0.947,-2.699 0.327,-0.929 0.677,-1.843 1.051,-2.742 0.374,-0.9 0.784,-1.766 1.227,-2.598 0.444,-0.832 0.935,-1.586 1.473,-2.263 0.374,-0.309 0.736,-0.678 1.087,-1.103 0.35,-0.426 0.701,-0.774 1.051,-1.045 v -0.319 c 0,-0.213 -0.099,-0.411 -0.297,-0.595 -0.2,-0.184 -0.433,-0.344 -0.702,-0.479 -0.268,-0.135 -0.549,-0.237 -0.841,-0.305 -0.292,-0.067 -0.532,-0.101 -0.719,-0.101 h -0.316 c -0.093,0 -0.233,0.014 -0.42,0.043 -0.187,0.029 -0.385,0.073 -0.596,0.131 -0.21,0.058 -0.421,0.121 -0.631,0.189 -0.21,0.068 -0.386,0.15 -0.525,0.246 -0.399,0.387 -0.726,0.856 -0.983,1.408 -0.257,0.551 -0.478,1.142 -0.666,1.77 -0.187,0.628 -0.368,1.263 -0.543,1.901 -0.176,0.639 -0.368,1.228 -0.579,1.77 z" /></g><g
           transform="translate(445.8242,366.5537)"
           id="g244"><path
             id="path246"
             style="fill:#373535;fill-opacity:1;fill-rule:nonzero;stroke:none"
             d="m 0,0 c 0,1.296 0.07,2.535 0.211,3.715 0.14,1.18 0.21,2.38 0.21,3.598 V 9.896 L -0.385,9.577 c 0.093,0.077 0.25,0.233 0.473,0.465 0.222,0.232 0.333,0.396 0.333,0.493 v 2.931 c 0,0.097 0.105,0.227 0.315,0.392 0.211,0.164 0.374,0.247 0.492,0.247 h 0.174 c 0.562,0 0.965,-0.194 1.21,-0.581 0.245,-0.387 0.415,-0.836 0.509,-1.349 0.093,-0.513 0.128,-1.03 0.105,-1.553 C 3.202,10.1 3.19,9.693 3.19,9.403 V 7.604 C 3.19,7.565 3.173,7.468 3.139,7.313 3.104,7.159 3.056,6.989 2.998,6.806 2.939,6.622 2.893,6.453 2.857,6.298 2.822,6.143 2.805,6.046 2.805,6.008 2.805,5.872 2.781,5.553 2.735,5.05 2.688,4.547 2.642,3.986 2.595,3.367 2.548,2.747 2.501,2.138 2.454,1.539 2.407,0.938 2.385,0.474 2.385,0.146 V -0.667 -1.48 c 0,-0.116 0.022,-0.329 0.069,-0.639 0.047,-0.309 0.094,-0.638 0.141,-0.986 0.047,-0.349 0.093,-0.678 0.14,-0.987 0.046,-0.31 0.07,-0.522 0.07,-0.638 0.14,-0.04 0.251,-0.112 0.334,-0.218 C 3.22,-5.055 3.29,-5.176 3.349,-5.311 3.406,-5.446 3.454,-5.582 3.489,-5.717 3.523,-5.853 3.564,-5.959 3.611,-6.036 3.658,-6.152 3.705,-6.297 3.752,-6.472 3.798,-6.646 3.845,-6.82 3.892,-6.994 3.938,-7.207 3.974,-7.42 3.997,-7.633 3.903,-7.962 3.722,-8.155 3.454,-8.213 3.185,-8.271 2.898,-8.3 2.595,-8.3 H 2.034 C 1.636,-7.468 1.298,-6.598 1.018,-5.688 0.736,-4.779 0.397,-3.918 0,-3.105 Z" /></g><g
           transform="translate(445.8242,366.5537)"
           id="g248"><path
             id="path250"
             style="fill:none;stroke:#373535;stroke-width:0.5;stroke-linecap:butt;stroke-linejoin:miter;stroke-miterlimit:10;stroke-dasharray:none;stroke-opacity:1"
             d="m 0,0 c 0,1.296 0.07,2.535 0.211,3.715 0.14,1.18 0.21,2.38 0.21,3.598 V 9.896 L -0.385,9.577 c 0.093,0.077 0.25,0.233 0.473,0.465 0.222,0.232 0.333,0.396 0.333,0.493 v 2.931 c 0,0.097 0.105,0.227 0.315,0.392 0.211,0.164 0.374,0.247 0.492,0.247 h 0.174 c 0.562,0 0.965,-0.194 1.21,-0.581 0.245,-0.387 0.415,-0.836 0.509,-1.349 0.093,-0.513 0.128,-1.03 0.105,-1.553 C 3.202,10.1 3.19,9.693 3.19,9.403 V 7.604 C 3.19,7.565 3.173,7.468 3.139,7.313 3.104,7.159 3.056,6.989 2.998,6.806 2.939,6.622 2.893,6.453 2.857,6.298 2.822,6.143 2.805,6.046 2.805,6.008 2.805,5.872 2.781,5.553 2.735,5.05 2.688,4.547 2.642,3.986 2.595,3.367 2.548,2.747 2.501,2.138 2.454,1.539 2.407,0.938 2.385,0.474 2.385,0.146 V -0.667 -1.48 c 0,-0.116 0.022,-0.329 0.069,-0.639 0.047,-0.309 0.094,-0.638 0.141,-0.986 0.047,-0.349 0.093,-0.678 0.14,-0.987 0.046,-0.31 0.07,-0.522 0.07,-0.638 0.14,-0.04 0.251,-0.112 0.334,-0.218 C 3.22,-5.055 3.29,-5.176 3.349,-5.311 3.406,-5.446 3.454,-5.582 3.489,-5.717 3.523,-5.853 3.564,-5.959 3.611,-6.036 3.658,-6.152 3.705,-6.297 3.752,-6.472 3.798,-6.646 3.845,-6.82 3.892,-6.994 3.938,-7.207 3.974,-7.42 3.997,-7.633 3.903,-7.962 3.722,-8.155 3.454,-8.213 3.185,-8.271 2.898,-8.3 2.595,-8.3 H 2.034 C 1.636,-7.468 1.298,-6.598 1.018,-5.688 0.736,-4.779 0.397,-3.918 0,-3.105 Z" /></g><g
           transform="translate(457.7451,372.0971)"
           id="g252"><path
             id="path254"
             style="fill:#373535;fill-opacity:1;fill-rule:nonzero;stroke:none"
             d="m 0,0 c -0.421,0 -0.824,-0.136 -1.21,-0.406 -0.386,-0.272 -0.73,-0.595 -1.034,-0.972 -0.304,-0.378 -0.549,-0.775 -0.736,-1.19 -0.187,-0.417 -0.281,-0.78 -0.281,-1.089 0.468,0 0.958,0.073 1.473,0.218 0.514,0.145 0.981,0.343 1.402,0.595 0.421,0.251 0.772,0.546 1.052,0.885 0.28,0.338 0.421,0.711 0.421,1.117 0,0.329 -0.076,0.551 -0.229,0.668 C 0.707,-0.058 0.421,0 0,0 m -6.556,-2.061 c 0.257,0.523 0.601,1.069 1.035,1.64 0.431,0.57 0.94,1.093 1.524,1.567 0.584,0.474 1.232,0.871 1.946,1.19 0.712,0.319 1.489,0.479 2.331,0.479 0.748,0 1.385,-0.126 1.911,-0.377 C 2.717,2.186 3.144,1.867 3.471,1.48 3.798,1.093 4.037,0.663 4.189,0.188 4.341,-0.286 4.417,-0.755 4.417,-1.219 4.417,-2.032 4.225,-2.728 3.839,-3.309 3.453,-3.889 2.933,-4.382 2.278,-4.789 1.624,-5.195 0.858,-5.534 -0.018,-5.805 -0.895,-6.076 -1.812,-6.317 -2.77,-6.53 v -1.973 l 3.857,-2.873 h 0.841 c 0.421,0 0.847,0.062 1.28,0.188 0.432,0.125 0.853,0.266 1.262,0.421 0.409,0.154 0.801,0.294 1.175,0.421 0.373,0.125 0.701,0.188 0.981,0.188 0.537,0 0.987,-0.058 1.35,-0.174 0.362,-0.116 0.824,-0.319 1.384,-0.609 -0.421,-0.601 -0.876,-1.089 -1.367,-1.466 -0.49,-0.377 -1.04,-0.673 -1.647,-0.885 -0.609,-0.213 -1.275,-0.354 -1.998,-0.421 -0.726,-0.068 -1.532,-0.101 -2.42,-0.101 H 0 c -0.304,0.154 -0.596,0.309 -0.877,0.464 -0.257,0.135 -0.508,0.27 -0.753,0.406 -0.246,0.135 -0.438,0.251 -0.579,0.348 -0.889,0.619 -1.618,1.214 -2.191,1.785 -0.573,0.571 -1.017,1.165 -1.332,1.785 -0.316,0.619 -0.533,1.281 -0.649,1.988 -0.117,0.706 -0.175,1.495 -0.175,2.365 z" /></g><g
           transform="translate(457.7451,372.0971)"
           id="g256"><path
             id="path258"
             style="fill:none;stroke:#373535;stroke-width:0.5;stroke-linecap:butt;stroke-linejoin:miter;stroke-miterlimit:10;stroke-dasharray:none;stroke-opacity:1"
             d="m 0,0 c -0.421,0 -0.824,-0.136 -1.21,-0.406 -0.386,-0.272 -0.73,-0.595 -1.034,-0.972 -0.304,-0.378 -0.549,-0.775 -0.736,-1.19 -0.187,-0.417 -0.281,-0.78 -0.281,-1.089 0.468,0 0.958,0.073 1.473,0.218 0.514,0.145 0.981,0.343 1.402,0.595 0.421,0.251 0.772,0.546 1.052,0.885 0.28,0.338 0.421,0.711 0.421,1.117 0,0.329 -0.076,0.551 -0.229,0.668 C 0.707,-0.058 0.421,0 0,0 Z m -6.556,-2.061 c 0.257,0.523 0.601,1.069 1.035,1.64 0.431,0.57 0.94,1.093 1.524,1.567 0.584,0.474 1.232,0.871 1.946,1.19 0.712,0.319 1.489,0.479 2.331,0.479 0.748,0 1.385,-0.126 1.911,-0.377 C 2.717,2.186 3.144,1.867 3.471,1.48 3.798,1.093 4.037,0.663 4.189,0.188 4.341,-0.286 4.417,-0.755 4.417,-1.219 4.417,-2.032 4.225,-2.728 3.839,-3.309 3.453,-3.889 2.933,-4.382 2.278,-4.789 1.624,-5.195 0.858,-5.534 -0.018,-5.805 -0.895,-6.076 -1.812,-6.317 -2.77,-6.53 v -1.973 l 3.857,-2.873 h 0.841 c 0.421,0 0.847,0.062 1.28,0.188 0.432,0.125 0.853,0.266 1.262,0.421 0.409,0.154 0.801,0.294 1.175,0.421 0.373,0.125 0.701,0.188 0.981,0.188 0.537,0 0.987,-0.058 1.35,-0.174 0.362,-0.116 0.824,-0.319 1.384,-0.609 -0.421,-0.601 -0.876,-1.089 -1.367,-1.466 -0.49,-0.377 -1.04,-0.673 -1.647,-0.885 -0.609,-0.213 -1.275,-0.354 -1.998,-0.421 -0.726,-0.068 -1.532,-0.101 -2.42,-0.101 H 0 c -0.304,0.154 -0.596,0.309 -0.877,0.464 -0.257,0.135 -0.508,0.27 -0.753,0.406 -0.246,0.135 -0.438,0.251 -0.579,0.348 -0.889,0.619 -1.618,1.214 -2.191,1.785 -0.573,0.571 -1.017,1.165 -1.332,1.785 -0.316,0.619 -0.533,1.281 -0.649,1.988 -0.117,0.706 -0.175,1.495 -0.175,2.365 z" /></g><g
           transform="translate(468.8584,360.6914)"
           id="g260"><path
             id="path262"
             style="fill:#373535;fill-opacity:1;fill-rule:nonzero;stroke:none"
             d="M 0,0 C 0,0.135 0.063,0.329 0.192,0.581 0.32,0.832 0.467,0.958 0.631,0.958 h 5.574 c 0.141,0 0.351,0.029 0.631,0.087 C 7.116,1.103 7.397,1.18 7.678,1.277 7.958,1.374 8.197,1.49 8.396,1.625 8.595,1.76 8.694,1.916 8.694,2.09 8.694,2.322 8.467,2.573 8.011,2.844 7.555,3.115 6.977,3.405 6.275,3.715 5.574,4.024 4.826,4.358 4.031,4.716 3.236,5.074 2.489,5.471 1.788,5.906 1.087,6.341 0.508,6.81 0.052,7.313 c -0.455,0.503 -0.684,1.045 -0.684,1.626 0,0.116 0.065,0.266 0.194,0.45 0.127,0.183 0.274,0.343 0.438,0.479 0.467,0.406 1.021,0.856 1.665,1.349 0.643,0.493 1.338,0.948 2.086,1.364 0.748,0.416 1.543,0.769 2.384,1.059 0.842,0.291 1.694,0.436 2.559,0.436 0.234,0 0.496,-0.005 0.789,-0.015 0.292,-0.01 0.561,-0.043 0.806,-0.102 0.246,-0.058 0.45,-0.149 0.614,-0.275 0.163,-0.126 0.245,-0.305 0.245,-0.537 0,-0.368 -0.087,-0.634 -0.262,-0.798 C 10.71,12.184 10.389,11.976 9.921,11.725 H 8.694 C 8.601,11.725 8.419,11.647 8.15,11.493 7.882,11.337 7.584,11.159 7.257,10.956 6.93,10.752 6.608,10.549 6.293,10.346 5.978,10.143 5.749,9.983 5.609,9.868 5.281,9.635 4.989,9.442 4.732,9.287 4.476,9.132 4.347,8.929 4.347,8.678 V 8.445 C 4.814,7.981 5.393,7.531 6.082,7.096 6.771,6.661 7.443,6.327 8.099,6.095 8.8,5.862 9.547,5.674 10.342,5.529 11.137,5.384 11.873,5.195 12.551,4.963 13.229,4.73 13.789,4.416 14.233,4.02 14.678,3.623 14.899,3.076 14.899,2.38 14.899,1.664 14.637,1.016 14.111,0.436 13.585,-0.145 12.925,-0.638 12.13,-1.045 11.335,-1.451 10.465,-1.766 9.519,-1.988 8.571,-2.21 7.665,-2.322 6.801,-2.322 c -0.445,0 -1.023,0.044 -1.736,0.131 -0.712,0.087 -1.419,0.227 -2.121,0.42 C 2.243,-1.577 1.618,-1.335 1.069,-1.045 0.52,-0.754 0.163,-0.406 0,0" /></g><g
           transform="translate(468.8584,360.6914)"
           id="g264"><path
             id="path266"
             style="fill:none;stroke:#373535;stroke-width:0.5;stroke-linecap:butt;stroke-linejoin:miter;stroke-miterlimit:10;stroke-dasharray:none;stroke-opacity:1"
             d="M 0,0 C 0,0.135 0.063,0.329 0.192,0.581 0.32,0.832 0.467,0.958 0.631,0.958 h 5.574 c 0.141,0 0.351,0.029 0.631,0.087 C 7.116,1.103 7.397,1.18 7.678,1.277 7.958,1.374 8.197,1.49 8.396,1.625 8.595,1.76 8.694,1.916 8.694,2.09 8.694,2.322 8.467,2.573 8.011,2.844 7.555,3.115 6.977,3.405 6.275,3.715 5.574,4.024 4.826,4.358 4.031,4.716 3.236,5.074 2.489,5.471 1.788,5.906 1.087,6.341 0.508,6.81 0.052,7.313 c -0.455,0.503 -0.684,1.045 -0.684,1.626 0,0.116 0.065,0.266 0.194,0.45 0.127,0.183 0.274,0.343 0.438,0.479 0.467,0.406 1.021,0.856 1.665,1.349 0.643,0.493 1.338,0.948 2.086,1.364 0.748,0.416 1.543,0.769 2.384,1.059 0.842,0.291 1.694,0.436 2.559,0.436 0.234,0 0.496,-0.005 0.789,-0.015 0.292,-0.01 0.561,-0.043 0.806,-0.102 0.246,-0.058 0.45,-0.149 0.614,-0.275 0.163,-0.126 0.245,-0.305 0.245,-0.537 0,-0.368 -0.087,-0.634 -0.262,-0.798 C 10.71,12.184 10.389,11.976 9.921,11.725 H 8.694 C 8.601,11.725 8.419,11.647 8.15,11.493 7.882,11.337 7.584,11.159 7.257,10.956 6.93,10.752 6.608,10.549 6.293,10.346 5.978,10.143 5.749,9.983 5.609,9.868 5.281,9.635 4.989,9.442 4.732,9.287 4.476,9.132 4.347,8.929 4.347,8.678 V 8.445 C 4.814,7.981 5.393,7.531 6.082,7.096 6.771,6.661 7.443,6.327 8.099,6.095 8.8,5.862 9.547,5.674 10.342,5.529 11.137,5.384 11.873,5.195 12.551,4.963 13.229,4.73 13.789,4.416 14.233,4.02 14.678,3.623 14.899,3.076 14.899,2.38 14.899,1.664 14.637,1.016 14.111,0.436 13.585,-0.145 12.925,-0.638 12.13,-1.045 11.335,-1.451 10.465,-1.766 9.519,-1.988 8.571,-2.21 7.665,-2.322 6.801,-2.322 c -0.445,0 -1.023,0.044 -1.736,0.131 -0.712,0.087 -1.419,0.227 -2.121,0.42 C 2.243,-1.577 1.618,-1.335 1.069,-1.045 0.52,-0.754 0.163,-0.406 0,0 Z" /></g><g
           transform="translate(207.9053,359.6504)"
           id="g268"><path
             id="path270"
             style="fill:#373535;fill-opacity:1;fill-rule:nonzero;stroke:none"
             d="m 0,0 c 3.18,-0.183 6.349,1.493 8.327,3.93 2.117,2.609 3.145,5.803 3.638,9.088 0.155,1.03 -0.257,2.2 -1.397,2.46 C 9.617,15.695 8.274,15.188 8.108,14.081 7.904,12.718 7.625,11.363 7.188,10.054 7.126,9.868 7.062,9.683 6.993,9.499 6.978,9.458 6.798,8.995 6.878,9.192 6.957,9.389 6.763,8.934 6.745,8.894 6.663,8.717 6.577,8.542 6.488,8.368 6.339,8.079 6.179,7.795 6.008,7.519 5.906,7.353 5.799,7.189 5.688,7.028 5.662,6.989 5.36,6.573 5.508,6.769 5.648,6.953 5.318,6.543 5.325,6.55 5.227,6.436 5.126,6.324 5.023,6.214 4.796,5.973 4.557,5.742 4.306,5.523 4.272,5.494 3.901,5.188 4.088,5.336 4.275,5.483 3.891,5.196 3.854,5.17 3.582,4.983 3.3,4.811 3.01,4.654 2.878,4.583 2.744,4.518 2.61,4.451 2.104,4.199 2.963,4.562 2.431,4.375 2.151,4.277 1.871,4.185 1.583,4.115 1.44,4.08 1.292,4.061 1.15,4.023 0.922,3.961 1.454,4.037 1.068,4.011 0.71,3.987 0.358,3.979 0,4 -1.046,4.06 -2.046,3.037 -2,2 -1.949,0.865 -1.121,0.064 0,0" /></g><g
           transform="translate(347.667,359.6504)"
           id="g272"><path
             id="path274"
             style="fill:#373535;fill-opacity:1;fill-rule:nonzero;stroke:none"
             d="m 0,0 c 3.18,-0.183 6.349,1.493 8.326,3.93 2.118,2.609 3.147,5.803 3.64,9.088 0.154,1.03 -0.258,2.2 -1.398,2.46 C 9.617,15.695 8.274,15.188 8.108,14.081 7.903,12.718 7.626,11.363 7.188,10.054 7.126,9.868 7.062,9.683 6.993,9.499 6.978,9.458 6.799,8.995 6.878,9.192 6.957,9.389 6.763,8.934 6.744,8.894 6.662,8.717 6.577,8.542 6.487,8.368 6.339,8.079 6.179,7.795 6.009,7.519 5.905,7.353 5.799,7.189 5.688,7.028 5.662,6.989 5.359,6.573 5.508,6.769 5.647,6.953 5.318,6.543 5.325,6.55 5.228,6.436 5.126,6.324 5.022,6.214 4.796,5.973 4.557,5.742 4.306,5.523 4.272,5.494 3.9,5.188 4.088,5.336 4.274,5.483 3.892,5.196 3.854,5.17 3.582,4.983 3.3,4.811 3.01,4.654 2.878,4.583 2.744,4.518 2.61,4.451 2.104,4.199 2.963,4.562 2.431,4.375 2.151,4.277 1.871,4.185 1.583,4.115 1.44,4.08 1.292,4.061 1.15,4.023 0.923,3.961 1.454,4.037 1.067,4.011 0.71,3.987 0.358,3.979 0,4 -1.046,4.06 -2.047,3.037 -2,2 -1.949,0.865 -1.121,0.064 0,0" /></g><path
           id="path276"
           style="fill:#ee333b;fill-opacity:1;fill-rule:nonzero;stroke:none"
           d="m 160.505,299.994 h -92.25 v 11.298 h 92.25 z" /><path
           id="path278"
           style="fill:#ea7b38;fill-opacity:1;fill-rule:nonzero;stroke:none"
           d="m 160.505,288.728 h -92.25 v 11.298 h 92.25 z" /><path
           id="path280"
           style="fill:#e9e739;fill-opacity:1;fill-rule:nonzero;stroke:none"
           d="m 160.505,277.464 h -92.25 v 11.298 h 92.25 z" /><path
           id="path282"
           style="fill:#79c14f;fill-opacity:1;fill-rule:nonzero;stroke:none"
           d="m 160.505,266.198 h -92.25 v 11.298 h 92.25 z" /><path
           id="path284"
           style="fill:#4c5ca7;fill-opacity:1;fill-rule:nonzero;stroke:none"
           d="m 160.505,254.934 h -92.25 v 11.298 h 92.25 z" /><path
           id="path286"
           style="fill:#ee333b;fill-opacity:1;fill-rule:nonzero;stroke:none"
           d="M 552.754,298.539 H 465.4 v 11.298 h 87.354 z" /><path
           id="path288"
           style="fill:#ea7b38;fill-opacity:1;fill-rule:nonzero;stroke:none"
           d="M 552.754,287.273 H 465.4 v 11.298 h 87.354 z" /><path
           id="path290"
           style="fill:#e9e739;fill-opacity:1;fill-rule:nonzero;stroke:none"
           d="M 552.754,276.009 H 465.4 v 11.297 h 87.354 z" /><path
           id="path292"
           style="fill:#79c14f;fill-opacity:1;fill-rule:nonzero;stroke:none"
           d="M 552.754,264.743 H 465.4 v 11.298 h 87.354 z" /><path
           id="path294"
           style="fill:#4c5ca7;fill-opacity:1;fill-rule:nonzero;stroke:none"
           d="M 552.754,253.478 H 465.4 v 11.298 h 87.354 z" /></g></g></g></svg>